<svg xmlns="http://www.w3.org/2000/svg" viewBox="0 0 449.57 65.1"><defs><style>.cls-1{fill:#b00;}</style></defs><title>BNR Logo Horizontal Color Black</title><g id="Layer_2" data-name="Layer 2"><g id="Layer_1-2" data-name="Layer 1"><path d="M65.16,40.32V.3h3.12V16a12.38,12.38,0,0,1,10.08-5.4c7.74,0,13,6.06,13,15.24S86,41,78.36,41A12.35,12.35,0,0,1,68.28,35.7v4.62Zm12.66-2.1C84.3,38.22,88,32.88,88,25.86S84.3,13.44,77.82,13.44a11.81,11.81,0,0,0-9.54,5.28V33.06A11.71,11.71,0,0,0,77.82,38.22Z"></path><path d="M117.81,40.32V36.06a14.7,14.7,0,0,1-10.44,5c-5.94,0-9.11-2.76-9.11-9.3V11.34h3.11V31c0,5.64,2.83,7.2,7,7.2a12.53,12.53,0,0,0,9.42-4.8V11.34h3.12v29Z"></path><path d="M127.84,25.8c0-8.46,5.58-15.18,14.1-15.18a12,12,0,0,1,10.26,4.92L150,17.46a9.17,9.17,0,0,0-7.92-4c-6.78,0-10.92,5.4-10.92,12.36s4.14,12.42,10.92,12.42A9.23,9.23,0,0,0,150,34.14l2.16,1.92a11.85,11.85,0,0,1-10.26,5C133.42,41,127.84,34.26,127.84,25.8Z"></path><path d="M178,40.32l-11.58-13.8-5.4,5.1v8.7h-3.12V.3H161V27.9l17.1-16.56h4.14l-13.5,13.08,13.44,15.9Z"></path><path d="M183.79,25.8c0-8.4,5.94-15.18,14-15.18,8.82,0,13.68,7,13.68,15.36v.84H187.21c.3,6.3,4.5,11.52,11.34,11.52a12.73,12.73,0,0,0,9.48-4l1.62,2A15,15,0,0,1,198.31,41C189.85,41,183.79,34.74,183.79,25.8Zm13.92-12.48c-6.84,0-10.26,6-10.5,11h21.06C208.21,19.44,205,13.32,197.71,13.32Z"></path><path d="M216.5,48.78a7.23,7.23,0,0,0,2.52.48c1.92,0,3.24-.78,4.38-3.54l2.28-5.16L213.44,11.34h3.48l10.56,25.32,10.44-25.32h3.54l-15,35.34c-1.56,3.66-4,5.4-7.44,5.4a12.16,12.16,0,0,1-3.06-.42Z"></path><path d="M243.32,25.8c0-8.4,5.94-15.18,14-15.18,8.82,0,13.68,7,13.68,15.36v.84H246.74c.3,6.3,4.5,11.52,11.34,11.52a12.73,12.73,0,0,0,9.48-4l1.62,2A15,15,0,0,1,257.84,41C249.38,41,243.32,34.74,243.32,25.8Zm13.92-12.48c-6.84,0-10.26,6-10.5,11H267.8C267.74,19.44,264.5,13.32,257.24,13.32Z"></path><path d="M313.16,40.32V22.2c0-4.5-2.28-6-5.82-6a9.54,9.54,0,0,0-7.44,3.9V40.32h-6.3v-29h6.3v4a13.71,13.71,0,0,1,10.2-4.68c6.24,0,9.36,3.36,9.36,9.3v20.4Z"></path><path d="M344.27,40.32V37.2A12.23,12.23,0,0,1,334.91,41c-4.74,0-10.08-3.18-10.08-9.6,0-6.66,5.34-9.42,10.08-9.42,3.9,0,7.26,1.26,9.36,3.72V21.42c0-3.36-2.76-5.4-6.78-5.4a11.87,11.87,0,0,0-8.58,3.66l-2.58-4.38a17.23,17.23,0,0,1,12.18-4.68c6.42,0,12.06,2.7,12.06,10.5v19.2Zm0-6.6V29.34c-1.44-2-4.14-3-6.9-3-3.54,0-6.18,2-6.18,5.22s2.64,5.16,6.18,5.16C340.13,36.72,342.83,35.7,344.27,33.72Z"></path><path d="M358.91,33.6V16.86h-4.8V11.34h4.8V3.42h6.3v7.92h5.88v5.52h-5.88V32c0,2,1,3.42,2.76,3.42a4.07,4.07,0,0,0,2.82-1l1.5,4.74c-1.14,1.08-3,1.86-5.94,1.86C361.49,41,358.91,38.4,358.91,33.6Z"></path><path d="M375.19,3.9a3.9,3.9,0,1,1,3.9,3.9A3.93,3.93,0,0,1,375.19,3.9ZM376,40.32v-29h6.3v29Z"></path><path d="M387.45,25.8c0-8.28,5.7-15.18,14.88-15.18s14.94,6.9,14.94,15.18S411.63,41,402.33,41,387.45,34.14,387.45,25.8Zm23.28,0c0-5.1-3-9.6-8.4-9.6S394,20.7,394,25.8s3,9.66,8.34,9.66S410.73,31,410.73,25.8Z"></path><path d="M442.28,40.32V22.2c0-4.5-2.28-6-5.82-6A9.54,9.54,0,0,0,429,20.1V40.32h-6.3v-29H429v4a13.71,13.71,0,0,1,10.2-4.68c6.24,0,9.35,3.36,9.35,9.3v20.4Z"></path><path class="cls-1" d="M56.27,18.83A13.92,13.92,0,0,0,51.6,17a17.44,17.44,0,0,0-4.82-.58,15.26,15.26,0,0,0-4.57,1,18.25,18.25,0,0,0-8.57,6.23A30,30,0,0,0,32,26.45a30,30,0,0,1-1.64,2.71,11.94,11.94,0,0,1-.83.91c-.27.25-.81.72-1.15.6s-.3-.43-.32-.66a8.5,8.5,0,0,1,2.31-5,12.86,12.86,0,0,0,2.83-11,14.47,14.47,0,0,0-3.39-5.56,19.37,19.37,0,0,1-2.44-3.4,7.85,7.85,0,0,1-.63-2.26,6.6,6.6,0,0,1,0-.77,3.83,3.83,0,0,0,.05-.75,3.53,3.53,0,0,0-1.07.7,10.47,10.47,0,0,0-1.54,1.51C21,7.16,18.46,12.21,19.71,17.12a19.64,19.64,0,0,0,3.78,7.24c.59.78,1.19,1.56,1.72,2.38a11.57,11.57,0,0,1,1.3,2.49c.08.24.15.49.21.74l.09.38c0,.18.16.43,0,.6s-.66.21-1,.15c-1-.26-2-1.2-2.9-2.92a15.77,15.77,0,0,0-3.39-4.61A12.83,12.83,0,0,0,15,21a13.93,13.93,0,0,0-5.24-.73c-2.25.16-4.41,1-6.69.75a6.33,6.33,0,0,1-1.72-.4,6.53,6.53,0,0,1-.7-.35A3.1,3.1,0,0,0,0,19.9a3.38,3.38,0,0,0,.12,1.26A15.42,15.42,0,0,0,1.9,25.67a12.53,12.53,0,0,0,2.85,3.51,16.31,16.31,0,0,0,3.74,2.34,19.51,19.51,0,0,0,2.41.91,20.44,20.44,0,0,0,5.14,1,20.86,20.86,0,0,0,4.85-.55,27.73,27.73,0,0,1,5-.6c.18,0,.41.06.42.26,0,.53-.71.93-1.1,1.18a4.18,4.18,0,0,1-.8.38,8.06,8.06,0,0,1-2.18.45,11.83,11.83,0,0,1-1.46,0,17.85,17.85,0,0,0-6.2.61,14.59,14.59,0,0,0-9.06,9c-.16.52-.32,1-.46,1.54-.45,1.67-1,3.68-2.44,4.77a5.72,5.72,0,0,1-.67.41,3.72,3.72,0,0,0-.69.35,4.23,4.23,0,0,0,1.2.55,12.72,12.72,0,0,0,2.17.53A15.5,15.5,0,0,0,15.78,50a22.55,22.55,0,0,0,2.73-2.11,26.63,26.63,0,0,0,2.91-3.1A18.31,18.31,0,0,0,24.19,39a17.94,17.94,0,0,1,2.31-4.83.73.73,0,0,1,.8-.24,1.35,1.35,0,0,1,.63.7c.53,1.09,1.16,2.7,1.24,2.91a25.78,25.78,0,0,1,1.58,10.21,35.58,35.58,0,0,1-1.6,9.83,23,23,0,0,1-1.07,2.68A10.75,10.75,0,0,1,26,63.41c-.07.07-.93.74-.93.75v0a6.68,6.68,0,0,0,3.4.06A5.6,5.6,0,0,0,29,63c.25-.69.48-1.39.68-2.1.54-1.9,1-3.84,1.36-5.77a40,40,0,0,0,.81-8.8c0-.94-.08-1.87-.18-2.81a30.61,30.61,0,0,0-.88-4.64,33.91,33.91,0,0,0-1.64-4.72c0-.22.06-.22.13-.26s.2,0,.33.07c1,.47,1.79,1.6,2.46,3.44a16.63,16.63,0,0,0,2.85,5.33,15.09,15.09,0,0,0,11.8,5c.55,0,1.09-.07,1.62-.13,1.73-.17,3.82-.4,5.38.53a5,5,0,0,1,.64.46,3.86,3.86,0,0,0,.58.49A3.55,3.55,0,0,0,55,47.83a10,10,0,0,0-.29-2.12,14.83,14.83,0,0,0-6.25-9.21,23.42,23.42,0,0,0-3-1.71,28.13,28.13,0,0,0-4-1.52A19.33,19.33,0,0,0,35,32.82a20.81,20.81,0,0,1-5.07-.19.41.41,0,0,1-.26-.32c-.05-.17.12-.38.25-.52.9-.82,2.37-.93,4.63-.34a17.38,17.38,0,0,0,6.1.71,12.52,12.52,0,0,0,2.24-.45l.13,0,.21-.07a15.21,15.21,0,0,0,8.25-6.14c.28-.46.56-.92.83-1.38.85-1.5,1.86-3.31,3.53-4a6,6,0,0,1,.75-.25,4.44,4.44,0,0,0,.74-.18,3.72,3.72,0,0,0-1-.79"></path><path class="cls-1" d="M30.42,62.44v-.12h-.71v.12H30v.91h.13v-.91Zm1.18.91v-1h-.2l-.3.75-.3-.75h-.21v1h.13v-.86l.36.86h0l.35-.86v.86Z"></path><path d="M262.77,64.79l-3.85-6.48h-3v6.48h-3V47.44h7.62c3.43,0,5.67,2.24,5.67,5.44A4.86,4.86,0,0,1,262,58l4.24,6.82ZM263,52.88a2.74,2.74,0,0,0-3-2.76H255.9v5.51h4.16A2.73,2.73,0,0,0,263,52.88Z"></path><path d="M282.19,64.79V47.44h11.88v2.68h-8.84v4.5h8.66V57.3h-8.66v4.81h8.84v2.68Z"></path><path d="M323.69,64.79,320.31,52,317,64.79H313.7l-5-17.35h3.4l3.38,13.37,3.59-13.37h2.42l3.59,13.37,3.35-13.37h3.41l-4.94,17.35Z"></path><path d="M358.05,64.79l-1.27-3.33h-8l-1.27,3.33h-3.46l6.81-17.35h3.8l6.81,17.35ZM352.8,50.51l-3.12,8.27h6.24Z"></path><path d="M386.32,64.79l-3.85-6.48h-3v6.48h-3V47.44H384c3.44,0,5.67,2.24,5.67,5.44A4.86,4.86,0,0,1,385.59,58l4.24,6.82Zm.26-11.91a2.73,2.73,0,0,0-3-2.76h-4.16v5.51h4.16A2.73,2.73,0,0,0,386.58,52.88Z"></path><path d="M405.74,64.79V47.44h6.45c5.41,0,9.08,3.59,9.08,8.69s-3.67,8.66-9.08,8.66Zm12.41-8.66c0-3.36-2.08-6-6-6h-3.4v12h3.4A5.7,5.7,0,0,0,418.15,56.13Z"></path><path d="M435.82,62.34,437.5,60A7.47,7.47,0,0,0,443,62.39c2.5,0,3.49-1.22,3.49-2.36,0-1.56-1.85-2-4-2.58-2.83-.7-6.16-1.53-6.16-5.2,0-2.86,2.52-5.07,6.32-5.07a9,9,0,0,1,6.5,2.42l-1.74,2.26a7.07,7.07,0,0,0-5-2c-1.79,0-2.94.86-2.94,2.16s1.77,1.79,3.82,2.31c2.86.73,6.27,1.61,6.27,5.38,0,2.89-2,5.36-6.71,5.36A9.25,9.25,0,0,1,435.82,62.34Z"></path></g></g></svg>