<?xml version="1.0" encoding="UTF-8"?>
<svg width="23px" height="16px" viewBox="0 0 23 16" version="1.1" xmlns="http://www.w3.org/2000/svg" xmlns:xlink="http://www.w3.org/1999/xlink">
    <!-- Generator: Sketch 49 (51002) - http://www.bohemiancoding.com/sketch -->
    <title>EMAIL-ICON</title>
    <desc>Created with Sketch.</desc>
    <defs></defs>
    <g id="Welcome" stroke="none" stroke-width="1" fill="none" fill-rule="evenodd" stroke-linecap="round" stroke-linejoin="round">
        <g id="HP_New-User_Register_Email" transform="translate(-505.000000, -291.000000)" stroke="#666666" stroke-width="2">
            <g id="FORM-FIELDS" transform="translate(458.000000, 234.000000)">
                <g id="EMAIL" transform="translate(48.000000, 53.000000)">
                    <g id="EMAIL-ICON" transform="translate(0.000000, 5.000000)">
                        <path d="M19.3062998,14 L1.69370015,14 C0.762165069,14 0,13.2223289 0,12.271842 L0,1.728158 C0,0.777671101 0.762165069,0 1.69370015,0 L19.3062998,0 C20.2378349,0 21,0.777671101 21,1.728158 L21,12.271842 C21,13.2223289 20.2378349,14 19.3062998,14 Z" id="Stroke-1"></path>
                        <path d="M18,3 C16.1596591,4.86295812 11.5999472,8.50395776 11.5999472,8.50395776 C10.9466531,9.16534741 9.88714175,9.16534741 9.23384769,8.50395776 C9.23384769,8.50395776 4.76950851,4.95970095 3,3.16826476" id="Stroke-3"></path>
                    </g>
                </g>
            </g>
        </g>
    </g>
</svg>