<?xml version="1.0" encoding="UTF-8"?>
<svg width="254px" height="212px" viewBox="0 0 254 212" version="1.1" xmlns="http://www.w3.org/2000/svg" xmlns:xlink="http://www.w3.org/1999/xlink">
    <!-- Generator: Sketch 49.3 (51167) - http://www.bohemiancoding.com/sketch -->
    <title>SHARE-ICON-RED</title>
    <desc>Created with Sketch.</desc>
    <defs></defs>
    <g id="Page-1" stroke="none" stroke-width="1" fill="none" fill-rule="evenodd">
        <g id="BNR-Join-Carousel" transform="translate(-564.000000, -164.000000)" stroke-width="3">
            <g id="SIGN-UP-Copy" transform="translate(473.000000, 111.000000)">
                <g id="SHARE-ICON-RED" transform="translate(60.000000, 7.000000)">
                    <path d="M215.985726,62.5481551 L145.117337,62.5481551 C143.68792,62.5481551 142.517283,63.7187913 142.517283,65.1490247 L142.517283,100.907308 C142.517283,102.337541 143.68792,103.508177 145.117337,103.508177 L202.548717,103.508177 L202.548717,111.743448 L210.783987,103.508177 L215.985726,103.508177 C217.41596,103.508177 218.586596,102.337541 218.586596,100.907308 L218.586596,65.1490247 C218.586596,63.7187913 217.41596,62.5481551 215.985726,62.5481551 Z" id="Stroke-1" stroke="#BB0000" stroke-linejoin="round"></path>
                    <path d="M116.967454,94.8945317 C116.967454,80.1725976 101.927962,68.2384757 83.3765622,68.2384757 C64.8243456,68.2384757 49.784854,80.1725976 49.784854,94.8945317 C49.784854,109.617282 64.8243456,121.551404 83.3765622,121.551404 C83.8900421,121.551404 84.401073,121.538343 84.9096548,121.520383 C86.6664255,125.74251 91.4061144,133.687163 102.230826,133.687163 C102.230826,133.687163 92.3081736,123.763694 96.5703017,119.414217 C108.5632,115.344746 116.967454,105.899655 116.967454,94.8945317 Z" id="Stroke-3" stroke="#BB0000" stroke-linecap="round" stroke-linejoin="round"></path>
                    <path d="M183.104808,250.17714 L118.767981,250.17714 C116.972026,250.17714 115.502608,248.706906 115.502608,246.911767 L115.502608,122.194111 C115.502608,120.39734 116.972026,118.928738 118.767981,118.928738 L183.104808,118.928738 C184.900763,118.928738 186.370181,120.39734 186.370181,122.194111 L186.370181,246.911767 C186.370181,248.706906 184.900763,250.17714 183.104808,250.17714 Z" id="Stroke-5" stroke="#BB0000" stroke-linecap="round" stroke-linejoin="round"></path>
                    <path d="M143.740982,126.646202 L158.132297,126.646202" id="Stroke-7" stroke="#BB0000" stroke-linecap="round" stroke-linejoin="round"></path>
                    <path d="M155.534121,241.72513 C152.995294,244.263141 148.878475,244.263141 146.339647,241.72513 C143.80082,239.186303 143.80082,235.069484 146.339647,232.52984 C148.878475,229.991012 152.995294,229.991012 155.534121,232.52984 C158.072949,235.069484 158.072949,239.186303 155.534121,241.72513 Z" id="Stroke-9" stroke="#BB0000" stroke-linecap="round" stroke-linejoin="round"></path>
                    <path d="M120.704755,135.099028 L181.16885,135.099028" id="Stroke-11" stroke="#BB0000" stroke-linecap="round" stroke-linejoin="round"></path>
                    <path d="M120.704755,224.774007 L181.16885,224.774007" id="Stroke-13" stroke="#BB0000" stroke-linecap="round" stroke-linejoin="round"></path>
                    <polygon id="Stroke-15" stroke="#BB0000" stroke-linejoin="round" points="218.039401 129.591895 218.039401 145.323646 230.625781 137.772471"></polygon>
                    <path d="M238.176875,137.14307 C238.176875,146.179174 230.851827,153.505038 221.815723,153.505038 C212.77962,153.505038 205.453756,146.179174 205.453756,137.14307 C205.453756,128.106967 212.77962,120.781919 221.815723,120.781919 C230.851827,120.781919 238.176875,128.106967 238.176875,137.14307 Z" id="Stroke-17" stroke="#BB0000" stroke-linejoin="round"></path>
                    <path d="M78.9198179,236.964135 L74.0217584,255.740029" id="Stroke-19" stroke="#BB0000" stroke-linecap="round" stroke-linejoin="round"></path>
                    <path d="M87.0832503,236.964135 L82.1851909,255.740029" id="Stroke-21" stroke="#BB0000" stroke-linecap="round" stroke-linejoin="round"></path>
                    <path d="M92.2427845,242.504738 L71.0660244,242.70964" id="Stroke-23" stroke="#BB0000" stroke-linecap="round" stroke-linejoin="round"></path>
                    <path d="M90.8548378,249.993789 L69.678894,250.198691" id="Stroke-25" stroke="#BB0000" stroke-linecap="round" stroke-linejoin="round"></path>
                    <polygon id="Stroke-27" stroke="#BB0000" stroke-linecap="round" stroke-linejoin="round" points="204.460674 253.392798 211.202853 253.392798 211.202853 234.385061 204.460674 234.385061"></polygon>
                    <path d="M212.411857,236.218732 C217.440532,234.981972 218.004625,229.078177 217.887072,224.958093 C217.86503,224.160525 217.930338,223.29112 218.460144,222.696006 C219.374449,221.670679 221.116525,222.058442 222.176139,222.933562 C223.705966,224.196445 224.480676,226.216078 224.550881,228.198976 C224.683129,231.950073 221.39898,234.772988 226.57378,234.772988 L233.983728,234.772988 C233.983728,234.772988 236.511126,234.273386 235.4409,239.489819 C234.53231,243.923379 234.347817,252.86397 227.993401,252.86397 L216.931134,252.86397 C216.931134,252.86397 213.72617,253.130915 212.144097,250.965972" id="Stroke-29" stroke="#BB0000" stroke-linecap="round" stroke-linejoin="round"></path>
                    <path d="M134.219889,55.9655713 C134.219889,51.6903818 131.252481,48.2250047 127.198521,48.2250047 C124.462954,48.2250047 122.0776,49.8046289 120.815533,52.1442686 C119.55265,49.8046289 117.168111,48.2250047 114.432545,48.2250047 C110.377768,48.2250047 107.41036,51.6903818 107.41036,55.9655713 C107.41036,58.6954231 108.694468,60.6138298 110.456953,62.471827 L120.815533,71.9520211 L131.493303,62.2416182 C133.146398,60.4987254 134.219889,58.5492977 134.219889,55.9655713 Z" id="Stroke-30" stroke="#BB0000" stroke-linecap="round" stroke-linejoin="round"></path>
                    <path d="M266.067323,170.366853 L226.234671,170.366853 C216.765906,170.366853 209.08983,178.042928 209.08983,187.511693 C209.08983,196.980459 216.765906,204.655718 226.234671,204.655718 L241.190896,204.655718 L246.150997,213.696719 L251.111099,204.655718 L266.067323,204.655718 C275.536089,204.655718 283.211348,196.980459 283.211348,187.511693 C283.211348,178.042928 275.536089,170.366853 266.067323,170.366853 Z" id="Stroke-31" stroke="#BB0000"></path>
                    <path d="M77.1348834,141.260706 C76.1013928,144.820778 74.6336077,148.431465 73.8491018,152.038885 C73.4588897,153.830759 73.7837943,155.996518 75.378929,156.981844 C76.5283403,157.692062 78.0598003,157.586754 79.303091,157.044702 C85.2305593,154.462609 88.1424557,147.118785 85.9636356,141.267236 C84.0248204,136.058966 78.5022583,133.751164 73.1037804,133.696469 C66.3420093,133.629529 59.9263677,137.038578 56.2495578,142.523589 C53.6323613,146.427342 52.3515188,152.183378 54.0054302,156.598979 C56.7132407,163.826066 67.775508,166.76735 74.9593286,162.944415" id="Stroke-32" stroke="#BB0000" stroke-linecap="round" stroke-linejoin="round"></path>
                    <path d="M76.0466978,142.523425 C73.01235,140.127458 68.8677753,139.786226 65.4644403,143.431199 C63.3011307,145.747981 61.8080389,149.252543 62.6741791,152.477915 C63.6995062,156.29432 67.7795898,156.628204 70.9886351,155.050212 C70.9886351,155.050212 73.9258381,154.207746 74.2523754,150.418281" id="Stroke-33" stroke="#BB0000" stroke-linecap="round" stroke-linejoin="round"></path>
                    <path d="M99.2869288,179.534714 L88.9463089,179.534714 L84.5927504,179.534714 L36.4897246,179.534714 C34.6937694,179.534714 33.2243516,181.004132 33.2243516,182.800087 L33.2243516,217.622024 C33.2243516,219.417163 34.6937694,220.887397 36.4897246,220.887397 L87.3136224,220.887397 C89.1095775,220.887397 90.5789954,219.417163 90.5789954,217.622024 L90.5789954,186.197707 L99.2869288,179.534714 Z" id="Stroke-34" stroke="#BB0000" stroke-linecap="round" stroke-linejoin="round"></path>
                    <path d="M92.68761,86.8793472 C92.68761,91.6884252 83.9804929,102.661711 83.9804929,102.661711 C83.9804929,102.661711 75.2725595,91.6884252 75.2725595,86.8793472 C75.2725595,82.0702691 79.1705985,78.1714138 83.9804929,78.1714138 C88.789571,78.1714138 92.68761,82.0702691 92.68761,86.8793472 Z" id="Stroke-35" stroke="#FF0000" stroke-linecap="round" stroke-linejoin="round"></path>
                    <path d="M87.5177082,86.8793472 C87.5177082,88.8336729 85.9340023,90.4165625 83.9804929,90.4165625 C82.0261672,90.4165625 80.4424613,88.8336729 80.4424613,86.8793472 C80.4424613,84.9258378 82.0261672,83.3421319 83.9804929,83.3421319 C85.9340023,83.3421319 87.5177082,84.9258378 87.5177082,86.8793472 Z" id="Stroke-36" stroke="#FF0000" stroke-linecap="round" stroke-linejoin="round"></path>
                    <polyline id="Stroke-37" stroke="#FF0000" stroke-linecap="round" stroke-linejoin="round" points="77.1093318 98.9885747 70.5785858 98.9885747 66.4968696 108.376522 100.783286 108.376522 96.837899 98.9885747 90.987167 98.9885747"></polyline>
                    <path d="M253.086323,185.528959 C253.086323,183.309322 251.545883,181.510101 249.44135,181.510101 C248.020913,181.510101 246.783337,182.330526 246.127813,183.545245 C245.472289,182.330526 244.234713,181.510101 242.814276,181.510101 C240.709743,181.510101 239.169303,183.309322 239.169303,185.528959 C239.169303,186.945314 239.836256,187.941253 240.751376,188.906171 L246.127813,193.827088 L251.670784,188.786169 C252.527944,187.88166 253.086323,186.870211 253.086323,185.528959 Z" id="Stroke-38" stroke="#FF0000" stroke-linecap="round" stroke-linejoin="round"></path>
                    <g id="Group" transform="translate(171.000000, 76.000000)" stroke="#FF0000" stroke-linecap="round" stroke-linejoin="round">
                        <path d="M6.67979925,0.9273883 L3.57279686,12.8370199" id="Stroke-39"></path>
                        <path d="M11.8577012,0.9273883 L8.7506988,12.8370199" id="Stroke-40"></path>
                        <path d="M15.1309927,4.44190924 L1.69806459,4.57170782" id="Stroke-41"></path>
                        <path d="M14.2508931,9.19245549 L0.817964938,9.32225407" id="Stroke-42"></path>
                    </g>
                    <polygon id="Stroke-43" stroke="#FF0000" stroke-linecap="round" stroke-linejoin="round" points="54.286987 207.659616 58.0935955 207.659616 58.0935955 196.927968 54.286987 196.927968"></polygon>
                    <path d="M58.7758952,197.963009 C61.6159534,197.265036 61.9335109,193.93109 61.8673871,191.604512 C61.8543256,191.154707 61.8918774,190.664085 62.1914753,190.326935 C62.7074043,189.748147 63.6910979,189.967744 64.2894775,190.461631 C65.1531686,191.175115 65.5907286,192.314731 65.6299131,193.433937 C65.7042003,195.553164 63.8502848,197.146666 66.7727936,197.146666 L70.9557364,197.146666 C70.9557364,197.146666 72.3827044,196.864211 71.7794268,199.809578 C71.2659469,202.313303 71.1614549,207.361569 67.5736264,207.361569 L61.3277842,207.361569 C61.3277842,207.361569 59.5187676,207.511776 58.6248717,206.289711" id="Stroke-44" stroke="#FF0000" stroke-linecap="round" stroke-linejoin="round"></path>
                </g>
            </g>
        </g>
    </g>
</svg>