<?xml version="1.0" encoding="UTF-8"?>
<svg width="187px" height="227px" viewBox="0 0 187 227" version="1.1" xmlns="http://www.w3.org/2000/svg" xmlns:xlink="http://www.w3.org/1999/xlink">
    <!-- Generator: Sketch 49.3 (51167) - http://www.bohemiancoding.com/sketch -->
    <title>Group 92</title>
    <desc>Created with Sketch.</desc>
    <defs></defs>
    <g id="Page-1" stroke="none" stroke-width="1" fill="none" fill-rule="evenodd">
        <g id="BNR-Join-Carousel" transform="translate(-149.000000, -152.000000)">
            <g id="SIGN-UP" transform="translate(32.000000, 111.000000)">
                <g id="CHALLENGE-ICON" transform="translate(118.000000, 40.000000)">
                    <g id="Group-92" transform="translate(0.000000, 0.700000)">
                        <path d="M108.6981,33.3428 C110.6551,32.9338 112.7441,35.2088 111.7561,37.0988 C110.3031,39.8758 103.5761,39.1678 104.3321,43.3438 C104.4651,44.0758 105.0411,44.6448 105.6361,45.0908 C106.9351,46.0608 109.4701,47.0498 109.4971,48.9728 C109.5181,50.5408 108.3531,52.0368 106.8271,52.4008" id="Stroke-20" stroke="#FF0000" stroke-width="3" stroke-linecap="round" stroke-linejoin="round"></path>
                        <path d="M94.3378,31.7793 L94.3378,78.7793" id="Stroke-22" stroke="#BB0000" stroke-width="3" stroke-linecap="round" stroke-linejoin="round"></path>
                        <path d="M94.3378,17.2793 L94.3378,25.7793" id="Stroke-24" stroke="#BB0000" stroke-width="3" stroke-linecap="round" stroke-linejoin="round"></path>
                        <path d="M49.5848,104.5693 C49.5848,104.5693 33.7688,104.5473 33.6438,104.5473 C33.6438,104.5473 30.1708,139.0093 52.7308,139.0093" id="Stroke-26" stroke="#BB0000" stroke-width="3" stroke-linejoin="round"></path>
                        <path d="M65.8378,81.7793 L27.8378,57.7793" id="Stroke-28" stroke="#BB0000" stroke-width="3" stroke-linecap="round" stroke-linejoin="round"></path>
                        <path d="M123.3378,78.7793 L161.3378,54.7793" id="Stroke-30" stroke="#BB0000" stroke-width="3" stroke-linecap="round" stroke-linejoin="round"></path>
                        <path d="M110.6014,78.9912 L124.3374,36.5292" id="Stroke-32" stroke="#BB0000" stroke-width="3" stroke-linecap="round" stroke-linejoin="round"></path>
                        <path d="M77.8378,77.9912 L64.1018,35.5292" id="Stroke-34" stroke="#BB0000" stroke-width="3" stroke-linecap="round" stroke-linejoin="round"></path>
                        <path d="M59.8378,22.7793 L62.3378,29.7793" id="Stroke-36" stroke="#BB0000" stroke-width="3" stroke-linecap="round" stroke-linejoin="round"></path>
                        <path d="M16.6708,50.2793 L22.5138,53.9983" id="Stroke-38" stroke="#BB0000" stroke-width="3" stroke-linecap="round" stroke-linejoin="round"></path>
                        <path d="M129.1708,23.7793 L126.6708,30.7793" id="Stroke-40" stroke="#BB0000" stroke-width="3" stroke-linecap="round" stroke-linejoin="round"></path>
                        <path d="M172.3378,47.2793 L166.4948,50.9983" id="Stroke-42" stroke="#BB0000" stroke-width="3" stroke-linecap="round" stroke-linejoin="round"></path>
                        <path d="M136.5966,104.5693 C136.5966,104.5693 152.4136,104.5473 152.5376,104.5473 C152.5376,104.5473 156.0106,139.0093 133.4506,139.0093" id="Stroke-44" stroke="#BB0000" stroke-width="3" stroke-linejoin="round"></path>
                        <path d="M89.1093,93.2793 L49.4433,93.2793 L49.4433,122.2793 C49.4433,146.4793 69.2433,166.2793 93.4433,166.2793 C117.6423,166.2793 137.4433,146.4793 137.4433,122.2793 L137.4433,93.2793 L98.5053,93.2793" id="Stroke-46" stroke="#BB0000" stroke-width="3" stroke-linecap="round" stroke-linejoin="round"></path>
                        <path d="M140.7098,192.2793 C140.7098,190.0793 139.4588,188.2793 137.9298,188.2793 L48.9558,188.2793 C47.4268,188.2793 46.1758,190.0793 46.1758,192.2793 L46.1758,215.2793 L140.7098,215.2793 L140.7098,192.2793 Z" id="Stroke-48" stroke="#BB0000" stroke-width="3" stroke-linejoin="round"></path>
                        <path d="M126.4325,180.2793 C126.4325,178.0793 125.1815,176.2793 123.6525,176.2793 L63.2335,176.2793 C61.7035,176.2793 60.4535,178.0793 60.4535,180.2793 L60.4535,188.2793 L126.4325,188.2793 L126.4325,180.2793 Z" id="Stroke-50" stroke="#BB0000" stroke-width="3" stroke-linejoin="round"></path>
                        <path d="M82.1093,164.5332 L82.1093,175.3432" id="Stroke-52" stroke="#BB0000" stroke-width="3" stroke-linejoin="round"></path>
                        <path d="M104.7762,164.8037 L104.7762,175.6127" id="Stroke-54" stroke="#BB0000" stroke-width="3" stroke-linejoin="round"></path>
                        <path d="M52.5048,194.2793 L52.5048,208.6123" id="Stroke-56" stroke="#BB0000" stroke-width="3" stroke-linecap="round" stroke-linejoin="round"></path>
                        <path d="M57.5048,103.6123 C57.5048,103.6123 52.1708,139.2793 72.1708,151.6123" id="Stroke-58" stroke="#BB0000" stroke-width="3" stroke-linecap="round" stroke-linejoin="round"></path>
                        <path d="M183.8378,220.2041 L150.0388,220.2041" id="Stroke-60" stroke="#FF0000" stroke-width="3" stroke-linecap="round" stroke-linejoin="round"></path>
                        <path d="M35.8339,220.2041 L0.8379,220.2041" id="Stroke-62" stroke="#FF0000" stroke-width="3" stroke-linecap="round" stroke-linejoin="round"></path>
                        <path d="M150.0165,219.4063 C150.0165,217.2063 148.7655,215.4063 147.2365,215.4063 L38.7435,215.4063 C37.2135,215.4063 35.9625,217.2063 35.9625,219.4063 L35.9625,225.3583 L150.0165,225.3583 L150.0165,219.4063 Z" id="Stroke-64" stroke="#BB0000" stroke-width="3" stroke-linejoin="round"></path>
                        <path d="M64.1678,64.4492 C64.1678,65.8282 63.0508,66.9462 61.6708,66.9462 C60.2918,66.9462 59.1738,65.8282 59.1738,64.4492 C59.1738,63.0692 60.2918,61.9502 61.6708,61.9502 C63.0508,61.9502 64.1678,63.0692 64.1678,64.4492" id="Fill-66" fill="#FF0000"></path>
                        <polygon id="Fill-68" fill="#FF0000" points="52.2343 24.5908 46.6823 21.9468 42.1303 10.8438 47.6813 13.4878"></polygon>
                        <polygon id="Fill-70" fill="#FF0000" points="30.3866 80.5576 36.5156 81.0506 42.6316 77.3316 36.5026 76.8386"></polygon>
                        <polygon id="Fill-72" fill="#FF0000" points="167.3866 66.5576 173.5156 67.0506 179.6316 63.3316 173.5026 62.8386"></polygon>
                        <path d="M139.0184,47.7173 C139.0184,47.0743 139.5394,46.5533 140.1824,46.5533 C140.8254,46.5533 141.3464,47.0743 141.3464,47.7173 C141.3464,48.3603 140.8254,48.8813 140.1824,48.8813 C139.5394,48.8813 139.0184,48.3603 139.0184,47.7173" id="Fill-74" fill="#FF0000"></path>
                        <path d="M26.3514,65.3838 C26.3514,64.7408 26.8724,64.2198 27.5154,64.2198 C28.1584,64.2198 28.6794,64.7408 28.6794,65.3838 C28.6794,66.0278 28.1584,66.5478 27.5154,66.5478 C26.8724,66.5478 26.3514,66.0278 26.3514,65.3838" id="Fill-76" fill="#FF0000"></path>
                        <polygon id="Fill-78" fill="#FF0000" points="108.3485 12.7173 102.3485 14.7173 102.3485 2.7173 108.3485 0.7173"></polygon>
                        <path d="M75.0341,28.522 C74.9331,29.065 74.6081,29.555 74.2501,29.682 C73.8921,29.811 72.6541,29.711 72.3841,29.676 C72.1131,29.642 71.8571,29.591 71.7521,29.374 C71.7521,29.374 71.5851,29.192 71.5601,29.019 C71.5371,28.846 71.8491,28.436 72.1431,27.98 C72.4381,27.522 72.6881,27.447 73.1231,27.269 C73.5561,27.089 74.6951,27.036 75.0671,27.223 C75.4391,27.411 75.1341,27.98 75.0341,28.522 M77.0861,26.432 C76.0571,26.1 75.1071,26.082 74.4091,26.051 C73.7131,26.022 73.3311,25.977 72.9941,26.035 C71.5561,26.285 70.5671,27.421 70.3461,28.084 C70.0131,29.075 68.9671,31.374 71.2041,33.167 C71.7431,33.598 72.4911,33.943 73.1271,34.205 C73.6741,34.431 74.2581,34.58 74.8531,34.546 C76.0001,34.482 76.9991,33.778 77.6541,32.866 C78.3111,31.95 78.7721,30.89 78.8901,29.763 C79.0641,28.109 78.1141,26.762 77.0861,26.432" id="Fill-80" fill="#FF0000"></path>
                        <path d="M77.9276,33.7319 L77.9276,33.4749 L77.8776,33.4749 L77.8026,33.6619 L77.7276,33.4749 L77.6776,33.4749 L77.6776,33.7319 L77.7096,33.7319 L77.7096,33.5199 L77.7976,33.7319 L77.8076,33.7319 L77.8956,33.5199 L77.8956,33.7319 L77.9276,33.7319 Z M77.6356,33.5049 L77.6356,33.4749 L77.4576,33.4749 L77.4576,33.5049 L77.5306,33.5049 L77.5306,33.7319 L77.5626,33.7319 L77.5626,33.5049 L77.6356,33.5049 Z" id="Fill-82" fill="#FF0000"></path>
                        <path d="M157.0848,42.5835 C157.0228,42.9235 156.8178,43.2305 156.5938,43.3115 C156.3698,43.3915 155.5928,43.3295 155.4228,43.3075 C155.2538,43.2855 155.0938,43.2535 155.0268,43.1175 C155.0268,43.1175 154.9228,43.0035 154.9068,42.8955 C154.8928,42.7865 155.0888,42.5295 155.2728,42.2435 C155.4578,41.9575 155.6148,41.9095 155.8868,41.7975 C156.1588,41.6855 156.8718,41.6515 157.1058,41.7695 C157.3398,41.8865 157.1468,42.2435 157.0848,42.5835 M158.3718,41.2725 C157.7268,41.0645 157.1308,41.0535 156.6928,41.0345 C156.2568,41.0165 156.0178,40.9875 155.8068,41.0245 C154.9048,41.1815 154.2848,41.8935 154.1468,42.3095 C153.9388,42.9295 153.2808,44.3715 154.6848,45.4955 C155.0218,45.7655 155.4908,45.9815 155.8898,46.1465 C156.2318,46.2875 156.5988,46.3805 156.9718,46.3595 C157.6898,46.3195 158.3168,45.8785 158.7278,45.3075 C159.1398,44.7325 159.4288,44.0675 159.5028,43.3615 C159.6108,42.3245 159.0158,41.4795 158.3718,41.2725" id="Fill-84" fill="#FF0000"></path>
                        <path d="M158.8993,45.8496 L158.8993,45.6886 L158.8683,45.6886 L158.8203,45.8056 L158.7733,45.6886 L158.7423,45.6886 L158.7423,45.8496 L158.7623,45.8496 L158.7623,45.7166 L158.8183,45.8496 L158.8233,45.8496 L158.8783,45.7166 L158.8783,45.8496 L158.8993,45.8496 Z M158.7153,45.7076 L158.7153,45.6886 L158.6043,45.6886 L158.6043,45.7076 L158.6503,45.7076 L158.6503,45.8496 L158.6703,45.8496 L158.6703,45.7076 L158.7153,45.7076 Z" id="Fill-86" fill="#FF0000"></path>
                        <path d="M57.2509,41.2876 C56.8729,41.0376 56.4349,40.8916 55.9929,40.7906 C55.5679,40.6946 55.1359,40.6106 54.6969,40.6346 C54.2749,40.6586 53.8599,40.7646 53.4679,40.9156 C52.5729,41.2596 51.7149,41.8006 51.1639,42.5896 C50.9979,42.8286 50.8559,43.0826 50.7159,43.3366 C50.5739,43.5926 50.4369,43.8386 50.2749,44.0656 C50.2049,44.1516 50.1309,44.2336 50.0519,44.3126 C49.9799,44.3786 49.8359,44.5046 49.7429,44.4726 C49.6819,44.4516 49.6629,44.3566 49.6559,44.2956 C49.6769,43.7566 49.9759,43.3386 50.2789,42.9586 C51.0029,42.0506 51.2819,40.9696 51.0379,39.9926 C50.8909,39.4116 50.5069,38.9456 50.1279,38.4966 C49.8889,38.2126 49.6439,37.9126 49.4719,37.5816 C49.3859,37.3866 49.3249,37.1816 49.3039,36.9746 C49.2959,36.9056 49.2959,36.8356 49.2989,36.7666 C49.3019,36.7026 49.3219,36.6256 49.3129,36.5636 C49.2129,36.5916 49.1049,36.6896 49.0249,36.7526 C48.8719,36.8716 48.7369,37.0126 48.6109,37.1596 C47.7579,38.1486 47.0819,39.5086 47.4169,40.8276 C47.6069,41.5716 47.9669,42.1686 48.4329,42.7766 C48.5929,42.9856 48.7529,43.1946 48.8959,43.4146 C49.0319,43.6256 49.1609,43.8466 49.2439,44.0846 C49.2679,44.1506 49.2859,44.2176 49.3029,44.2856 C49.3119,44.3196 49.3189,44.3536 49.3259,44.3876 C49.3359,44.4346 49.3689,44.5036 49.3299,44.5476 C49.2749,44.6066 49.1499,44.6036 49.0599,44.5876 C48.7789,44.5176 48.5309,44.2656 48.2799,43.8046 C48.0529,43.3806 47.7959,42.9406 47.3679,42.5636 C47.0199,42.2566 46.5959,42.0226 46.1539,41.8786 C45.7009,41.7306 45.2239,41.6516 44.7469,41.6836 C44.1409,41.7256 43.5589,41.9466 42.9459,41.8856 C42.7879,41.8706 42.6319,41.8366 42.4839,41.7776 C42.4189,41.7506 42.3569,41.7186 42.2969,41.6826 C42.2409,41.6496 42.1829,41.5956 42.1219,41.5746 C42.0999,41.6746 42.1369,41.8146 42.1539,41.9136 C42.2309,42.3336 42.4209,42.7546 42.6269,43.1286 C42.8209,43.4806 43.0819,43.8116 43.3929,44.0716 C43.6949,44.3246 44.0389,44.5386 44.3989,44.7026 C44.6089,44.7976 44.8279,44.8786 45.0479,44.9476 C45.4939,45.0866 45.9599,45.1936 46.4289,45.2136 C46.8699,45.2326 47.3039,45.1506 47.7339,45.0686 C48.1309,44.9896 48.6859,44.9006 49.0699,44.9076 C49.1189,44.9076 49.1819,44.9216 49.1829,44.9766 C49.1859,45.1196 48.9919,45.2256 48.8879,45.2946 C48.8209,45.3376 48.7459,45.3676 48.6719,45.3946 C48.4829,45.4646 48.2869,45.4986 48.0859,45.5156 C47.9559,45.5256 47.8239,45.5276 47.6939,45.5226 C47.1759,45.5036 46.6189,45.4986 46.0259,45.6866 C44.9189,46.0406 43.9619,46.9926 43.5889,48.1076 C43.5449,48.2466 43.5029,48.3846 43.4659,48.5216 C43.3429,48.9696 43.2029,49.5096 42.8089,49.8036 C42.7519,49.8456 42.6909,49.8816 42.6289,49.9146 C42.5709,49.9446 42.4929,49.9666 42.4439,50.0076 C42.5219,50.0776 42.6679,50.1196 42.7669,50.1556 C42.9559,50.2246 43.1519,50.2666 43.3499,50.2976 C44.4139,50.4706 45.4639,50.2756 46.3599,49.6836 C46.6169,49.5136 46.8669,49.3206 47.0939,49.1156 C47.3759,48.8606 47.6409,48.5766 47.8759,48.2806 C48.2579,47.7936 48.4459,47.2446 48.6209,46.7136 C48.7799,46.2406 48.9629,45.8076 49.2419,45.4156 C49.2889,45.3656 49.3729,45.3126 49.4579,45.3496 C49.5649,45.3976 49.5959,45.4846 49.6279,45.5376 C49.7719,45.8306 49.9389,46.2646 49.9599,46.3216 C50.2909,47.1986 50.4279,48.1346 50.3869,49.0666 C50.3479,49.9616 50.2399,50.8566 49.9559,51.7116 C49.8739,51.9576 49.7779,52.1986 49.6689,52.4326 C49.5229,52.7436 49.3509,53.0336 49.1049,53.2776 C49.0869,53.2966 48.8549,53.4776 48.8559,53.4806 C48.8559,53.4836 48.8569,53.4856 48.8579,53.4886 C49.0579,53.5346 49.5019,53.6166 49.7719,53.5036 C49.8379,53.4106 49.8709,53.2776 49.9069,53.1776 C49.9749,52.9906 50.0349,52.8016 50.0899,52.6106 C50.2339,52.1016 50.3539,51.5796 50.4569,51.0606 C50.6109,50.2816 50.6929,49.4876 50.6749,48.6936 C50.6689,48.4416 50.6519,48.1886 50.6249,47.9376 C50.5779,47.5166 50.4999,47.0996 50.3879,46.6896 C50.3569,46.5796 50.1469,45.8156 49.9489,45.4196 C49.9459,45.3606 49.9649,45.3596 49.9809,45.3496 C49.9969,45.3406 50.0369,45.3536 50.0719,45.3676 C50.3379,45.4946 50.5539,45.8006 50.7319,46.2926 C50.9039,46.7626 51.1039,47.2616 51.4989,47.7266 C52.2379,48.5926 53.4849,49.1186 54.6729,49.0646 C54.8199,49.0546 54.9659,49.0446 55.1079,49.0306 C55.5749,48.9846 56.1359,48.9216 56.5579,49.1726 C56.6179,49.2086 56.6739,49.2506 56.7289,49.2946 C56.7779,49.3356 56.8269,49.3976 56.8839,49.4276 C56.9209,49.3326 56.9069,49.1886 56.9039,49.0876 C56.8999,48.8946 56.8669,48.7046 56.8249,48.5166 C56.5979,47.5056 56.0289,46.6356 55.1429,46.0396 C54.8889,45.8696 54.6149,45.7136 54.3389,45.5816 C53.9949,45.4186 53.6309,45.2796 53.2659,45.1726 C52.6659,44.9996 52.0799,45.0226 51.5159,45.0506 C51.0439,45.0706 50.5949,45.0906 50.1509,44.9996 C50.1129,44.9836 50.0929,44.9606 50.0819,44.9146 C50.0699,44.8676 50.1139,44.8106 50.1489,44.7756 C50.3929,44.5536 50.7859,44.5226 51.3959,44.6836 C51.8969,44.8106 52.4359,44.9296 53.0339,44.8726 C53.2379,44.8526 53.4389,44.8106 53.6379,44.7526 C53.6489,44.7496 53.6599,44.7466 53.6719,44.7436 C53.6909,44.7376 53.7099,44.7316 53.7289,44.7256 C54.6169,44.4586 55.4429,43.8566 55.9479,43.0746 C56.0249,42.9496 56.1009,42.8276 56.1709,42.7036 C56.4009,42.3006 56.6719,41.8126 57.1219,41.6166 C57.1869,41.5886 57.2539,41.5676 57.3209,41.5496 C57.3849,41.5326 57.4639,41.5286 57.5219,41.5006 C57.4639,41.4156 57.3369,41.3446 57.2509,41.2876" id="Fill-88" fill="#FF0000"></path>
                        <path d="M133.9003,57.2202 C133.6583,57.0602 133.3793,56.9672 133.0973,56.9032 C132.8263,56.8412 132.5503,56.7882 132.2703,56.8032 C132.0013,56.8182 131.7363,56.8862 131.4853,56.9822 C130.9153,57.2022 130.3673,57.5472 130.0153,58.0512 C129.9093,58.2032 129.8193,58.3652 129.7293,58.5272 C129.6393,58.6902 129.5503,58.8472 129.4483,58.9922 C129.4033,59.0472 129.3563,59.1002 129.3053,59.1502 C129.2593,59.1922 129.1683,59.2722 129.1093,59.2522 C129.0693,59.2392 129.0573,59.1782 129.0533,59.1392 C129.0663,58.7952 129.2563,58.5292 129.4513,58.2862 C129.9133,57.7062 130.0903,57.0162 129.9353,56.3932 C129.8403,56.0222 129.5963,55.7252 129.3543,55.4392 C129.2023,55.2572 129.0453,55.0662 128.9353,54.8552 C128.8803,54.7312 128.8413,54.5992 128.8283,54.4672 C128.8233,54.4232 128.8233,54.3792 128.8253,54.3342 C128.8273,54.2942 128.8403,54.2452 128.8343,54.2052 C128.7703,54.2232 128.7023,54.2852 128.6503,54.3252 C128.5523,54.4022 128.4663,54.4912 128.3863,54.5852 C127.8413,55.2172 127.4103,56.0842 127.6253,56.9262 C127.7463,57.4012 127.9743,57.7822 128.2723,58.1702 C128.3753,58.3032 128.4763,58.4362 128.5683,58.5772 C128.6553,58.7122 128.7373,58.8532 128.7903,59.0052 C128.8043,59.0472 128.8173,59.0902 128.8283,59.1332 C128.8333,59.1552 128.8383,59.1762 128.8423,59.1982 C128.8493,59.2282 128.8703,59.2722 128.8443,59.3002 C128.8103,59.3382 128.7303,59.3362 128.6713,59.3262 C128.4943,59.2812 128.3363,59.1202 128.1743,58.8252 C128.0303,58.5552 127.8663,58.2752 127.5923,58.0342 C127.3713,57.8382 127.1003,57.6892 126.8183,57.5972 C126.5293,57.5032 126.2243,57.4522 125.9203,57.4732 C125.5343,57.4992 125.1623,57.6402 124.7713,57.6012 C124.6713,57.5922 124.5703,57.5702 124.4763,57.5322 C124.4353,57.5152 124.3953,57.4942 124.3563,57.4722 C124.3213,57.4512 124.2843,57.4162 124.2453,57.4032 C124.2313,57.4672 124.2543,57.5562 124.2663,57.6192 C124.3153,57.8872 124.4363,58.1562 124.5673,58.3942 C124.6913,58.6192 124.8573,58.8302 125.0553,58.9962 C125.2493,59.1572 125.4683,59.2952 125.6993,59.3992 C125.8333,59.4602 125.9723,59.5112 126.1123,59.5552 C126.3973,59.6442 126.6943,59.7132 126.9943,59.7252 C127.2753,59.7382 127.5513,59.6852 127.8273,59.6322 C128.0803,59.5822 128.4343,59.5252 128.6793,59.5302 C128.7103,59.5302 128.7503,59.5382 128.7513,59.5742 C128.7533,59.6652 128.6293,59.7332 128.5623,59.7772 C128.5203,59.8042 128.4723,59.8232 128.4253,59.8412 C128.3043,59.8852 128.1793,59.9082 128.0513,59.9182 C127.9683,59.9252 127.8843,59.9262 127.8003,59.9222 C127.4703,59.9102 127.1153,59.9072 126.7363,60.0272 C126.0303,60.2532 125.4203,60.8602 125.1813,61.5722 C125.1533,61.6612 125.1273,61.7482 125.1023,61.8362 C125.0243,62.1222 124.9353,62.4672 124.6833,62.6542 C124.6473,62.6802 124.6083,62.7042 124.5683,62.7252 C124.5323,62.7442 124.4823,62.7592 124.4513,62.7842 C124.5013,62.8292 124.5933,62.8552 124.6573,62.8792 C124.7773,62.9232 124.9033,62.9492 125.0293,62.9702 C125.7083,63.0802 126.3783,62.9562 126.9503,62.5772 C127.1143,62.4702 127.2733,62.3462 127.4183,62.2152 C127.5973,62.0532 127.7673,61.8712 127.9173,61.6822 C128.1613,61.3722 128.2813,61.0212 128.3923,60.6822 C128.4943,60.3812 128.6103,60.1042 128.7893,59.8542 C128.8193,59.8222 128.8723,59.7882 128.9263,59.8122 C128.9953,59.8432 129.0143,59.8982 129.0353,59.9312 C129.1273,60.1192 129.2333,60.3952 129.2473,60.4322 C129.4583,60.9912 129.5463,61.5892 129.5193,62.1842 C129.4953,62.7562 129.4253,63.3272 129.2443,63.8722 C129.1923,64.0292 129.1313,64.1822 129.0613,64.3322 C128.9683,64.5302 128.8583,64.7162 128.7023,64.8712 C128.6893,64.8842 128.5423,64.9992 128.5433,65.0012 C128.5433,65.0032 128.5443,65.0042 128.5443,65.0062 C128.6713,65.0352 128.9553,65.0872 129.1273,65.0152 C129.1693,64.9562 129.1903,64.8712 129.2133,64.8072 C129.2553,64.6882 129.2963,64.5672 129.3303,64.4462 C129.4213,64.1212 129.4983,63.7872 129.5643,63.4562 C129.6633,62.9602 129.7143,62.4532 129.7033,61.9462 C129.7003,61.7852 129.6893,61.6242 129.6713,61.4642 C129.6413,61.1952 129.5913,60.9282 129.5203,60.6672 C129.5013,60.5972 129.3673,60.1102 129.2403,59.8562 C129.2383,59.8192 129.2503,59.8182 129.2603,59.8122 C129.2703,59.8062 129.2963,59.8142 129.3193,59.8242 C129.4883,59.9042 129.6263,60.0992 129.7403,60.4142 C129.8493,60.7142 129.9773,61.0322 130.2293,61.3282 C130.7013,61.8822 131.4973,62.2172 132.2543,62.1822 C132.3483,62.1772 132.4413,62.1702 132.5323,62.1612 C132.8313,62.1322 133.1883,62.0922 133.4573,62.2522 C133.4963,62.2742 133.5323,62.3022 133.5663,62.3302 C133.5973,62.3552 133.6293,62.3952 133.6653,62.4142 C133.6893,62.3532 133.6803,62.2622 133.6783,62.1972 C133.6753,62.0752 133.6553,61.9532 133.6283,61.8332 C133.4833,61.1882 133.1203,60.6332 132.5543,60.2522 C132.3923,60.1442 132.2173,60.0442 132.0413,59.9602 C131.8223,59.8562 131.5893,59.7672 131.3563,59.6992 C130.9743,59.5892 130.5993,59.6032 130.2403,59.6212 C129.9383,59.6342 129.6523,59.6462 129.3693,59.5892 C129.3453,59.5782 129.3323,59.5632 129.3253,59.5342 C129.3173,59.5052 129.3453,59.4682 129.3683,59.4462 C129.5233,59.3042 129.7743,59.2842 130.1633,59.3872 C130.4823,59.4682 130.8273,59.5442 131.2093,59.5082 C131.3383,59.4952 131.4673,59.4682 131.5933,59.4312 C131.6013,59.4292 131.6083,59.4272 131.6163,59.4252 C131.6283,59.4212 131.6403,59.4182 131.6523,59.4142 C132.2193,59.2432 132.7463,58.8592 133.0683,58.3602 C133.1173,58.2812 133.1663,58.2022 133.2113,58.1232 C133.3573,57.8662 133.5303,57.5542 133.8173,57.4302 C133.8583,57.4122 133.9013,57.3982 133.9453,57.3872 C133.9853,57.3762 134.0363,57.3742 134.0723,57.3562 C134.0363,57.3022 133.9553,57.2562 133.9003,57.2202" id="Fill-90" fill="#FF0000"></path>
                    </g>
                </g>
            </g>
        </g>
    </g>
</svg>