<?xml version="1.0" encoding="UTF-8"?>
<svg width="27px" height="31px" viewBox="0 0 27 31" version="1.1" xmlns="http://www.w3.org/2000/svg" xmlns:xlink="http://www.w3.org/1999/xlink">
    <!-- Generator: Sketch 49.3 (51167) - http://www.bohemiancoding.com/sketch -->
    <title>LOGO-2</title>
    <desc>Created with Sketch.</desc>
    <defs></defs>
    <g id="Page-1" stroke="none" stroke-width="1" fill="none" fill-rule="evenodd">
        <g id="mobile-nav-sticky-Signed-Out" transform="translate(-15.000000, -12.000000)" fill="#FEFEFE">
            <g id="LOGO-2" transform="translate(15.000000, 12.182573)">
                <path d="M26.3686697,8.73578386 C25.7089211,8.30475028 24.9460869,8.05234742 24.1766926,7.87928442 C23.4363497,7.71225311 22.683824,7.56749264 21.9200526,7.60971445 C21.1839269,7.65008035 20.4618583,7.83335081 19.7768069,8.09410524 C18.2192754,8.68706639 16.7235954,9.62012184 15.7639611,10.981427 C15.474384,11.3929736 15.2279154,11.8318948 14.9837897,12.2703519 C14.7373211,12.710665 14.4964754,13.1356669 14.2158011,13.5277265 C14.093504,13.6757348 13.9632411,13.8177114 13.8259497,13.9531924 C13.7013097,14.0677944 13.4496869,14.2840072 13.2889669,14.229722 C13.181664,14.1935319 13.1483954,14.0306763 13.1376183,13.9234979 C13.1727611,12.9941543 13.6938126,12.2735998 14.2228297,11.6175379 C15.4837554,10.0506914 15.9691954,8.18597246 15.5451383,6.5017401 C15.287424,5.49908827 14.6192411,4.69548208 13.9594926,3.92110637 C13.5419954,3.43068389 13.1146583,2.91381479 12.8152411,2.34266051 C12.6662354,2.00674198 12.5608069,1.65226443 12.522384,1.29500302 C12.5087954,1.1762252 12.5087954,1.05605545 12.5148869,0.936349679 C12.5200411,0.825923425 12.5561211,0.694154281 12.538784,0.586975858 C12.3654126,0.635693323 12.1775154,0.803652584 12.0374126,0.912686911 C11.771264,1.11869219 11.5369783,1.36088759 11.3167497,1.61375443 C9.829504,3.32118559 8.651984,5.66611958 9.23676114,7.94099321 C9.56757257,9.22527839 10.193584,10.2562327 11.0051497,11.3043542 C11.2844183,11.6643995 11.5627497,12.0244447 11.8120297,12.4053689 C12.0505326,12.76959 12.2754469,13.1495862 12.4192983,13.5597409 C12.4591269,13.6738789 12.492864,13.7898729 12.5219154,13.9067948 C12.5359726,13.9652558 12.5495611,14.0241807 12.5622126,14.0831056 C12.5800183,14.1652293 12.6362469,14.2835432 12.568304,14.3587073 C12.4745897,14.4612459 12.2562354,14.4566062 12.0969211,14.4287676 C11.6091383,14.3076699 11.1780526,13.8724606 10.7399383,13.076278 C10.3435269,12.34598 9.89697829,11.5873795 9.150544,10.9368853 C8.54421257,10.4074889 7.80527543,10.0042939 7.03588114,9.75513882 C6.247744,9.49995209 5.41556114,9.36400717 4.58431543,9.41968427 C3.52909257,9.49067258 2.51463543,9.87206073 1.44769829,9.76766616 C1.17264686,9.74075556 0.899938286,9.68229461 0.643629714,9.58021992 C0.529766857,9.53521426 0.421526857,9.4786092 0.315629714,9.41690041 C0.218635429,9.36029536 0.116955429,9.26750019 0.0119954286,9.2308461 C-0.0264274286,9.40298114 0.0368297143,9.64424859 0.0691611429,9.81638363 C0.202704,10.5411139 0.533046857,11.2667722 0.891972571,11.9107707 C1.23074971,12.519043 1.68385829,13.0897333 2.22505829,13.537934 C2.75313829,13.9745353 3.351504,14.344324 3.98032686,14.6264214 C4.34581257,14.7906688 4.72629257,14.9298616 5.109584,15.0481754 C5.88741257,15.2885149 6.69804114,15.4741052 7.51429257,15.5089034 C8.28274971,15.5413817 9.039024,15.4003331 9.78967543,15.2569645 C10.4798811,15.1205556 11.446544,14.9679076 12.1166011,14.979507 C12.200944,14.9804349 12.3096526,15.0036337 12.3115269,15.0992127 C12.3171497,15.3460479 11.9797783,15.5297823 11.7984411,15.6471682 C11.682704,15.7218684 11.5519726,15.7729057 11.4231154,15.8202312 C11.0937097,15.939937 10.751184,16.0002539 10.4020983,16.0285564 C10.1753097,16.0471154 9.94617829,16.0503633 9.71845257,16.0410837 C8.81551543,16.0081415 7.84650971,16.0002539 6.81330971,16.324573 C4.88466971,16.9356292 3.21749257,18.5757839 2.56711543,20.4998917 C2.49120686,20.7406952 2.41810971,20.9777869 2.35250971,21.2139506 C2.13930971,21.9869344 1.89565257,22.9181339 1.20825829,23.4247955 C1.11032686,23.4976398 1.00396114,23.5598125 0.894784,23.6168816 C0.794041143,23.6693108 0.658155429,23.7073568 0.572875429,23.7774172 C0.710635429,23.8989789 0.962726857,23.9699672 1.13516114,24.0326039 C1.46456686,24.1509178 1.80709257,24.223298 2.151024,24.2785111 C4.00562971,24.5759197 5.834464,24.2400011 7.395744,23.2178623 C7.84276114,22.9255575 8.278064,22.5924229 8.67400686,22.2384093 C9.16413257,21.7985602 9.626144,21.3095296 10.0356754,20.7991562 C10.7015154,19.9588959 11.0290469,19.0114572 11.3336183,18.0960328 C11.6114811,17.2798993 11.9291726,16.5328982 12.4169554,15.8559574 C12.4970811,15.7701218 12.6432754,15.6791826 12.791344,15.7432112 C12.9792411,15.824871 13.0317211,15.9756631 13.0874811,16.0661384 C13.3376983,16.5728001 13.6291497,17.3202652 13.6666354,17.4186281 C14.2429783,18.9311894 14.480544,20.5472173 14.4097897,22.1544296 C14.3418469,23.6990053 14.1548869,25.2431169 13.6586697,26.7171682 C13.516224,27.1407782 13.3503497,27.5565006 13.158704,27.9610875 C12.9056754,28.4960517 12.604384,28.9976096 12.177984,29.4188997 C12.145184,29.451378 11.7422126,29.7640977 11.7436183,29.7687375 C11.7445554,29.7733772 11.7454926,29.777553 11.7468983,29.7821928 C12.0936411,29.8615326 12.8691269,30.0021173 13.3386354,29.8086394 C13.4534354,29.6481037 13.5106011,29.4188997 13.5738583,29.2449087 C13.6914697,28.9229095 13.798304,28.5976624 13.8924869,28.2687035 C14.1445783,27.3899332 14.3521554,26.4888921 14.5320869,25.5934187 C14.8010469,24.2502086 14.9439611,22.8805519 14.9120983,21.5108951 C14.9017897,21.0756858 14.8732069,20.6404764 14.824944,20.2075869 C14.7434126,19.4810008 14.6070583,18.7604462 14.4111954,18.053811 C14.3587154,17.8640449 13.9936983,16.5468174 13.6469554,15.862453 C13.6418011,15.7622343 13.6741326,15.7594504 13.7041211,15.7422833 C13.7312983,15.7274361 13.801584,15.7497069 13.8624983,15.7733697 C14.3249783,15.9914383 14.7012411,16.5199068 15.0123726,17.3694466 C15.3117897,18.1804764 15.6594697,19.0402237 16.3473326,19.8424379 C17.6349669,21.3373682 19.8077326,22.243513 21.8774126,22.1502539 C22.1337211,22.1335507 22.3862811,22.1163836 22.6355611,22.0922569 C23.4494697,22.012917 24.425504,21.9048106 25.1592869,22.3372361 C25.2647154,22.3989449 25.3631154,22.4713252 25.4572983,22.5478812 C25.543984,22.6184055 25.6297326,22.7260479 25.727664,22.7770853 C25.7927954,22.6133018 25.7684297,22.3655387 25.7642126,22.1910837 C25.7562469,21.858877 25.6995497,21.5303821 25.6264526,21.206063 C25.2300411,19.4619777 24.2399497,17.9605519 22.6955383,16.9333093 C22.2527383,16.6391486 21.7762011,16.3695786 21.2940411,16.1422305 C20.6966126,15.8610611 20.0616983,15.6225775 19.4253783,15.4374512 C18.3814011,15.1391147 17.3594469,15.1790166 16.376384,15.2272701 C15.5545097,15.2616043 14.7715269,15.2954745 14.0002583,15.1391147 C13.9337211,15.1117401 13.8981097,15.0709102 13.8784297,14.9920343 C13.8578126,14.9117665 13.9351269,14.8138676 13.9960411,14.7516948 C14.4200983,14.3693787 15.1046811,14.3160215 16.1678697,14.5925511 C17.038944,14.8129396 17.9784297,15.018481 19.0228754,14.920582 C19.3771154,14.8857839 19.7280754,14.8138676 20.072944,14.7127209 C20.0930926,14.7076171 20.1132411,14.7020494 20.1333897,14.6964817 C20.1661897,14.6867382 20.1989897,14.6765307 20.2322583,14.6658593 C21.7799497,14.2051313 23.2194011,13.1662893 24.0984411,11.8179755 C24.231984,11.6031547 24.363184,11.3915817 24.4864183,11.1786167 C24.8875154,10.4835809 25.3593669,9.64100075 26.1432869,9.30369031 C26.2552754,9.25497284 26.3724183,9.21831875 26.4909669,9.18723237 C26.600144,9.15846586 26.7397783,9.15150622 26.8386469,9.10278876 C26.7393097,8.95663636 26.5172069,8.83275481 26.3686697,8.73578386" id="Fill-25"></path>
                <path d="M14.8069977,29.393381 L14.8069977,28.913166 L14.7123463,28.913166 L14.5713063,29.2625398 L14.4297977,28.913166 L14.3356149,28.913166 L14.3356149,29.393381 L14.3969977,29.393381 L14.3969977,28.9962177 L14.5624034,29.393381 L14.5802091,29.393381 L14.7456149,28.9962177 L14.7456149,29.393381 L14.8069977,29.393381 Z M14.2559577,28.969771 L14.2559577,28.913166 L13.9204606,28.913166 L13.9204606,28.969771 L14.0572834,28.969771 L14.0572834,29.393381 L14.1186663,29.393381 L14.1186663,28.969771 L14.2559577,28.969771 Z" id="Fill-26"></path>
            </g>
        </g>
    </g>
</svg>