<svg id="Layer_1" data-name="Layer 1" xmlns="http://www.w3.org/2000/svg" viewBox="0 0 449.57 65.1"><defs><style>.cls-1{fill:#fff;}</style></defs><title>Buckeye-Nation-Rewards_LOGO</title><path class="cls-1" d="M65.16,40.32V.3h3.12V16a12.38,12.38,0,0,1,10.08-5.4c7.74,0,13,6.06,13,15.24S86,41,78.36,41A12.35,12.35,0,0,1,68.28,35.7v4.62Zm12.66-2.1C84.3,38.22,88,32.88,88,25.86S84.3,13.44,77.82,13.44a11.81,11.81,0,0,0-9.54,5.28V33.06A11.71,11.71,0,0,0,77.82,38.22Z"/><path class="cls-1" d="M117.81,40.32V36.06a14.7,14.7,0,0,1-10.44,5c-5.94,0-9.12-2.76-9.12-9.3V11.34h3.12V31c0,5.64,2.82,7.2,7,7.2a12.53,12.53,0,0,0,9.42-4.8V11.34h3.12v29Z"/><path class="cls-1" d="M127.84,25.8c0-8.46,5.58-15.18,14.1-15.18a12,12,0,0,1,10.26,4.92L150,17.46a9.17,9.17,0,0,0-7.92-4c-6.78,0-10.92,5.4-10.92,12.36s4.14,12.42,10.92,12.42A9.23,9.23,0,0,0,150,34.14l2.16,1.92a11.85,11.85,0,0,1-10.26,5C133.42,41,127.84,34.26,127.84,25.8Z"/><path class="cls-1" d="M178,40.32l-11.58-13.8-5.4,5.1v8.7h-3.12V.3H161V27.9l17.1-16.56h4.14l-13.5,13.08,13.44,15.9Z"/><path class="cls-1" d="M183.79,25.8c0-8.4,5.94-15.18,14-15.18,8.82,0,13.68,7,13.68,15.36v.84H187.21c.3,6.3,4.5,11.52,11.34,11.52a12.74,12.74,0,0,0,9.48-4l1.62,2A15,15,0,0,1,198.31,41C189.85,41,183.79,34.74,183.79,25.8Zm13.92-12.48c-6.84,0-10.26,6-10.5,11h21.06C208.21,19.44,205,13.32,197.71,13.32Z"/><path class="cls-1" d="M216.5,48.78a7.22,7.22,0,0,0,2.52.48c1.92,0,3.24-.78,4.38-3.54l2.28-5.16L213.44,11.34h3.48l10.56,25.32,10.44-25.32h3.54l-15,35.34c-1.56,3.66-4,5.4-7.44,5.4a12.15,12.15,0,0,1-3.06-.42Z"/><path class="cls-1" d="M243.32,25.8c0-8.4,5.94-15.18,14-15.18,8.82,0,13.68,7,13.68,15.36v.84H246.74c.3,6.3,4.5,11.52,11.34,11.52a12.74,12.74,0,0,0,9.48-4l1.62,2A15,15,0,0,1,257.84,41C249.38,41,243.32,34.74,243.32,25.8Zm13.92-12.48c-6.84,0-10.26,6-10.5,11H267.8C267.74,19.44,264.5,13.32,257.24,13.32Z"/><path class="cls-1" d="M313.16,40.32V22.2c0-4.5-2.28-6-5.82-6a9.54,9.54,0,0,0-7.44,3.9V40.32h-6.3v-29h6.3v4a13.71,13.71,0,0,1,10.2-4.68c6.24,0,9.36,3.36,9.36,9.3v20.4Z"/><path class="cls-1" d="M344.27,40.32V37.2A12.23,12.23,0,0,1,334.91,41c-4.74,0-10.08-3.18-10.08-9.6,0-6.66,5.34-9.42,10.08-9.42,3.9,0,7.26,1.26,9.36,3.72V21.42c0-3.36-2.76-5.4-6.78-5.4a11.86,11.86,0,0,0-8.58,3.66l-2.58-4.38a17.23,17.23,0,0,1,12.18-4.68c6.42,0,12.06,2.7,12.06,10.5v19.2Zm0-6.6V29.34c-1.44-2-4.14-3-6.9-3-3.54,0-6.18,2-6.18,5.22s2.64,5.16,6.18,5.16C340.13,36.72,342.83,35.7,344.27,33.72Z"/><path class="cls-1" d="M358.91,33.6V16.86h-4.8V11.34h4.8V3.42h6.3v7.92h5.88v5.52h-5.88V32c0,2,1,3.42,2.76,3.42a4.07,4.07,0,0,0,2.82-1l1.5,4.74c-1.14,1.08-3,1.86-5.94,1.86C361.49,41,358.91,38.4,358.91,33.6Z"/><path class="cls-1" d="M375.19,3.9a3.9,3.9,0,1,1,3.9,3.9A3.93,3.93,0,0,1,375.19,3.9ZM376,40.32v-29h6.3v29Z"/><path class="cls-1" d="M387.45,25.8c0-8.28,5.7-15.18,14.88-15.18s14.94,6.9,14.94,15.18S411.63,41,402.33,41,387.45,34.14,387.45,25.8Zm23.28,0c0-5.1-3-9.6-8.4-9.6S394,20.7,394,25.8s3,9.66,8.34,9.66S410.73,31,410.73,25.8Z"/><path class="cls-1" d="M442.28,40.32V22.2c0-4.5-2.28-6-5.82-6A9.54,9.54,0,0,0,429,20.1V40.32h-6.3v-29H429v4a13.71,13.71,0,0,1,10.2-4.68c6.24,0,9.36,3.36,9.36,9.3v20.4Z"/><path class="cls-1" d="M56.27,18.83A14.08,14.08,0,0,0,51.6,17a17.4,17.4,0,0,0-4.82-.58,15.14,15.14,0,0,0-4.57,1,18.27,18.27,0,0,0-8.56,6.22A30.88,30.88,0,0,0,32,26.45a28.8,28.8,0,0,1-1.64,2.71,12.25,12.25,0,0,1-.83.92c-.27.25-.8.71-1.15.6s-.3-.43-.32-.66a8.55,8.55,0,0,1,2.32-5,12.82,12.82,0,0,0,2.82-11,14.49,14.49,0,0,0-3.38-5.56A19.16,19.16,0,0,1,27.35,5a7.67,7.67,0,0,1-.63-2.26,4.92,4.92,0,0,1,0-.77,4,4,0,0,0,.05-.75,3.72,3.72,0,0,0-1.07.7,11.1,11.1,0,0,0-1.54,1.51C21,7.16,18.46,12.21,19.71,17.12a19.63,19.63,0,0,0,3.77,7.25c.6.78,1.19,1.55,1.72,2.37a11.75,11.75,0,0,1,1.3,2.49c.09.25.16.49.22.75l.09.38c0,.18.16.43,0,.59s-.67.21-1,.15c-1-.26-2-1.2-2.9-2.91a15.64,15.64,0,0,0-3.39-4.61A13,13,0,0,0,15,21a13.88,13.88,0,0,0-5.23-.72c-2.25.15-4.42,1-6.69.75a6.24,6.24,0,0,1-1.72-.4,5.15,5.15,0,0,1-.7-.35A4.14,4.14,0,0,0,0,19.9a3.6,3.6,0,0,0,.12,1.26A15.42,15.42,0,0,0,1.9,25.67a12.39,12.39,0,0,0,2.85,3.51,16.5,16.5,0,0,0,3.75,2.35,21.07,21.07,0,0,0,2.41.91,20.26,20.26,0,0,0,5.13,1,21,21,0,0,0,4.86-.54,26.85,26.85,0,0,1,5-.6c.18,0,.41.05.42.26,0,.53-.71.93-1.1,1.18a4,4,0,0,1-.8.37,8.18,8.18,0,0,1-2.18.45,12,12,0,0,1-1.46,0,17.61,17.61,0,0,0-6.2.61,14.57,14.57,0,0,0-9.06,9c-.16.52-.32,1-.46,1.54-.45,1.67-1,3.67-2.44,4.77a5,5,0,0,1-.67.41,4.09,4.09,0,0,0-.69.35,4,4,0,0,0,1.2.55,11.87,11.87,0,0,0,2.17.53A15.49,15.49,0,0,0,15.78,50a23.12,23.12,0,0,0,2.73-2.11,26.27,26.27,0,0,0,2.91-3.1A18.22,18.22,0,0,0,24.19,39a18,18,0,0,1,2.31-4.83.73.73,0,0,1,.8-.24,1.35,1.35,0,0,1,.63.7c.53,1.09,1.16,2.7,1.24,2.91a25.73,25.73,0,0,1,1.59,10.21,35.91,35.91,0,0,1-1.6,9.83,24.73,24.73,0,0,1-1.07,2.68A10.81,10.81,0,0,1,26,63.41c-.07.07-.93.74-.93.75v0a6.59,6.59,0,0,0,3.4.06A5.15,5.15,0,0,0,29,63q.38-1,.68-2.1c.54-1.89,1-3.84,1.36-5.77a40.49,40.49,0,0,0,.81-8.8q0-1.41-.19-2.81a30,30,0,0,0-.88-4.64,32.92,32.92,0,0,0-1.63-4.72c0-.22.06-.22.12-.26s.21,0,.34.07c1,.47,1.79,1.61,2.45,3.44a16.56,16.56,0,0,0,2.85,5.33,15.09,15.09,0,0,0,11.8,5c.55,0,1.09-.07,1.62-.13,1.74-.17,3.82-.4,5.39.53a5,5,0,0,1,.64.45,4.07,4.07,0,0,0,.58.49A3.6,3.6,0,0,0,55,47.83a10.85,10.85,0,0,0-.29-2.12,14.81,14.81,0,0,0-6.25-9.21,23.69,23.69,0,0,0-3-1.7,27.23,27.23,0,0,0-4-1.52,19.4,19.4,0,0,0-6.51-.45,20.71,20.71,0,0,1-5.07-.19.41.41,0,0,1-.26-.32c0-.17.12-.38.25-.52.91-.82,2.37-.94,4.64-.34a17.46,17.46,0,0,0,6.09.71,12.18,12.18,0,0,0,2.24-.45l.13,0,.21-.07a15.22,15.22,0,0,0,8.25-6.14c.29-.46.57-.92.83-1.38.86-1.5,1.86-3.31,3.54-4a5.08,5.08,0,0,1,.74-.25,4.15,4.15,0,0,0,.74-.18,3.72,3.72,0,0,0-1-.79"/><path class="cls-1" d="M30.42,62.44v-.12h-.72v.12H30v.91h.13v-.91Zm1.18.91v-1h-.2l-.3.75-.3-.75h-.2v1h.13v-.86l.35.86h0l.35-.86v.86Z"/><path class="cls-1" d="M262.77,64.79l-3.85-6.47h-3v6.47h-3V47.44h7.62c3.43,0,5.67,2.24,5.67,5.43A4.86,4.86,0,0,1,262,58l4.24,6.81ZM263,52.88a2.73,2.73,0,0,0-3-2.76H255.9v5.51h4.16A2.73,2.73,0,0,0,263,52.88Z"/><path class="cls-1" d="M282.19,64.79V47.44h11.88v2.68h-8.84v4.5h8.66V57.3h-8.66v4.81h8.84v2.68Z"/><path class="cls-1" d="M323.69,64.79,320.31,52,317,64.79H313.7l-5-17.34h3.41l3.38,13.36,3.59-13.36h2.42l3.59,13.36,3.35-13.36h3.41l-4.94,17.34Z"/><path class="cls-1" d="M358,64.79l-1.27-3.33h-8l-1.27,3.33h-3.46l6.81-17.34h3.8l6.81,17.34ZM352.8,50.51l-3.12,8.27h6.24Z"/><path class="cls-1" d="M386.32,64.79l-3.85-6.47h-3v6.47h-3V47.44H384c3.43,0,5.67,2.24,5.67,5.43a4.86,4.86,0,0,1-4.11,5.1l4.24,6.81Zm.26-11.91a2.73,2.73,0,0,0-3-2.76h-4.16v5.51h4.16A2.73,2.73,0,0,0,386.58,52.88Z"/><path class="cls-1" d="M405.74,64.79V47.44h6.45c5.41,0,9.08,3.59,9.08,8.68s-3.67,8.66-9.08,8.66Zm12.4-8.66c0-3.35-2.08-6-6-6h-3.41v12h3.41A5.69,5.69,0,0,0,418.15,56.13Z"/><path class="cls-1" d="M435.82,62.34,437.5,60A7.48,7.48,0,0,0,443,62.39c2.5,0,3.48-1.22,3.48-2.37,0-1.56-1.85-2-4-2.57-2.83-.7-6.16-1.53-6.16-5.2,0-2.86,2.52-5.07,6.32-5.07a9,9,0,0,1,6.5,2.42l-1.74,2.26a7.05,7.05,0,0,0-5-2c-1.79,0-2.94.86-2.94,2.16s1.77,1.79,3.82,2.31c2.86.73,6.27,1.61,6.27,5.38,0,2.89-2,5.36-6.71,5.36A9.27,9.27,0,0,1,435.82,62.34Z"/></svg>