<svg xmlns="http://www.w3.org/2000/svg" xmlns:xlink="http://www.w3.org/1999/xlink" viewBox="0 0 166.81 70.92"><defs><style>.cls-1,.cls-10,.cls-11,.cls-12,.cls-3,.cls-4,.cls-5,.cls-6,.cls-7,.cls-8,.cls-9{fill:none;stroke-miterlimit:10;}.cls-1{stroke:#000;}.cls-2{fill:#fff;}.cls-3{stroke:url(#linear-gradient);}.cls-4{stroke:url(#linear-gradient-2);}.cls-5{stroke:url(#linear-gradient-3);}.cls-6{stroke:url(#linear-gradient-4);}.cls-7{stroke:url(#linear-gradient-5);}.cls-8{stroke:url(#linear-gradient-6);}.cls-9{stroke:url(#linear-gradient-7);}.cls-10{stroke:url(#linear-gradient-8);}.cls-11{stroke:url(#linear-gradient-9);}.cls-12{stroke:url(#linear-gradient-10);}.cls-13{fill:#4841e8;}.cls-14{fill:url(#linear-gradient-11);}.cls-15{fill:url(#linear-gradient-12);}</style><linearGradient id="linear-gradient" x1="15.76" y1="18.53" x2="95.31" y2="64.47" gradientUnits="userSpaceOnUse"><stop offset="0" stop-color="#00ebff"></stop><stop offset="1" stop-color="#4841e8"></stop></linearGradient><linearGradient id="linear-gradient-2" x1="20.52" y1="10.29" x2="100.07" y2="56.22" xlink:href="#linear-gradient"></linearGradient><linearGradient id="linear-gradient-3" x1="24.23" y1="3.86" x2="103.79" y2="49.79" xlink:href="#linear-gradient"></linearGradient><linearGradient id="linear-gradient-4" x1="29.57" y1="-5.4" x2="109.13" y2="40.54" xlink:href="#linear-gradient"></linearGradient><linearGradient id="linear-gradient-5" x1="0.62" y1="44.75" x2="80.18" y2="90.68" xlink:href="#linear-gradient"></linearGradient><linearGradient id="linear-gradient-6" x1="5.31" y1="36.63" x2="84.87" y2="82.56" xlink:href="#linear-gradient"></linearGradient><linearGradient id="linear-gradient-7" x1="10.45" y1="27.72" x2="90.01" y2="73.66" xlink:href="#linear-gradient"></linearGradient><linearGradient id="linear-gradient-8" x1="13.64" y1="22.21" x2="93.19" y2="68.14" xlink:href="#linear-gradient"></linearGradient><linearGradient id="linear-gradient-9" x1="16.17" y1="17.82" x2="95.73" y2="63.75" xlink:href="#linear-gradient"></linearGradient><linearGradient id="linear-gradient-10" x1="20.48" y1="10.35" x2="100.04" y2="56.29" xlink:href="#linear-gradient"></linearGradient><linearGradient id="linear-gradient-11" x1="105.66" y1="52.42" x2="153.82" y2="1.01" gradientUnits="userSpaceOnUse"><stop offset="0" stop-color="#4841e8"></stop><stop offset="1" stop-color="#00ebff"></stop></linearGradient><linearGradient id="linear-gradient-12" x1="124.1" y1="57.34" x2="80.73" y2="44.92" gradientUnits="userSpaceOnUse"><stop offset="0" stop-color="#4742e8"></stop><stop offset="1" stop-color="#00acfe"></stop></linearGradient></defs><g id="Layer_2" data-name="Layer 2"><g id="Layer_1-2" data-name="Layer 1"><path class="cls-1" d="M27.93,38V19.75h9.75c4.27,0,6.57,2.85,6.57,6.27s-2.3,6.24-6.57,6.24H33.46V38ZM38.64,26c0-1-.74-1.45-1.67-1.45H33.46v2.87H37C37.9,27.44,38.64,27,38.64,26Z"></path><path class="cls-1" d="M45.79,38V19.75H59.64v4.82H51.32v1.8h8.13v4.82H51.32v2h8.32V38Z"></path><path class="cls-1" d="M71.88,38l-2.52-5.75h-2V38H61.83V19.75h9.75c4.27,0,6.57,2.85,6.57,6.27a5.89,5.89,0,0,1-3.29,5.53L78.17,38Zm.66-12c0-1-.88-1.42-1.81-1.42H67.36v2.87h3.37C71.66,27.44,72.54,27,72.54,26Z"></path><path class="cls-1" d="M90.77,38l-4.11-6.44-1,1.37V38H80.12V19.75h5.53v6.84l4.79-6.84H97.2l-6.9,8.49L97.5,38Z"></path><path class="cls-1" d="M.66,56l2.88-4.1a8.52,8.52,0,0,0,5.88,2.35c1,0,2-.27,2-1,0-1.75-10.18,0-10.18-7.17,0-3.09,2.57-6,7.58-6a12,12,0,0,1,7.74,2.55l-2.95,3.91a9.26,9.26,0,0,0-5.37-1.8c-1.09,0-1.39.35-1.39.82,0,1.72,10.15.24,10.15,7,0,4-3,6.35-7.88,6.35A12.06,12.06,0,0,1,.66,56Z"></path><path class="cls-1" d="M17.58,49.48c0-5.61,4.36-9.45,10-9.45s10,3.84,10,9.45-4.36,9.44-10,9.44S17.58,55.09,17.58,49.48Zm14.38,0a4.38,4.38,0,1,0-8.76,0,4.38,4.38,0,1,0,8.76,0Z"></path><path class="cls-1" d="M38.28,49.48c0-5.64,4.33-9.45,10-9.45a8.53,8.53,0,0,1,8.3,5.32l-4.77,2.21a3.87,3.87,0,0,0-3.53-2.65,4.57,4.57,0,0,0,0,9.14,3.87,3.87,0,0,0,3.53-2.65l4.77,2.19a8.63,8.63,0,0,1-8.3,5.33C42.61,58.92,38.28,55.09,38.28,49.48Z"></path><path class="cls-1" d="M58.08,58.59V40.34h5.53V58.59Z"></path><path class="cls-1" d="M78.48,58.59l-.66-2.13H71.25l-.66,2.13H64.32l6.74-18.25h7l6.74,18.25Zm-4-12.83-1.8,5.88h3.61Z"></path><path class="cls-1" d="M85.46,58.59V40.34H91V53.78h6.93v4.81Z"></path><path class="cls-2" d="M27.93,38V19.75h9.75c4.27,0,6.57,2.85,6.57,6.27s-2.3,6.24-6.57,6.24H33.46V38ZM38.64,26c0-1-.74-1.45-1.67-1.45H33.46v2.87H37C37.9,27.44,38.64,27,38.64,26Z"></path><path class="cls-2" d="M45.79,38V19.75H59.64v4.82H51.32v1.8h8.13v4.82H51.32v2h8.32V38Z"></path><path class="cls-2" d="M71.88,38l-2.52-5.75h-2V38H61.83V19.75h9.75c4.27,0,6.57,2.85,6.57,6.27a5.89,5.89,0,0,1-3.29,5.53L78.17,38Zm.66-12c0-1-.88-1.42-1.81-1.42H67.36v2.87h3.37C71.66,27.44,72.54,27,72.54,26Z"></path><path class="cls-2" d="M90.77,38l-4.11-6.44-1,1.37V38H80.12V19.75h5.53v6.84l4.79-6.84H97.2l-6.9,8.49L97.5,38Z"></path><path class="cls-2" d="M.66,56l2.88-4.1a8.52,8.52,0,0,0,5.88,2.35c1,0,2-.27,2-1,0-1.75-10.18,0-10.18-7.17,0-3.09,2.57-6,7.58-6a12,12,0,0,1,7.74,2.55l-2.95,3.91a9.26,9.26,0,0,0-5.37-1.8c-1.09,0-1.39.35-1.39.82,0,1.72,10.15.24,10.15,7,0,4-3,6.35-7.88,6.35A12.06,12.06,0,0,1,.66,56Z"></path><path class="cls-2" d="M17.58,49.48c0-5.61,4.36-9.45,10-9.45s10,3.84,10,9.45-4.36,9.44-10,9.44S17.58,55.09,17.58,49.48Zm14.38,0a4.38,4.38,0,1,0-8.76,0,4.38,4.38,0,1,0,8.76,0Z"></path><path class="cls-2" d="M38.28,49.48c0-5.64,4.33-9.45,10-9.45a8.53,8.53,0,0,1,8.3,5.32l-4.77,2.21a3.87,3.87,0,0,0-3.53-2.65,4.57,4.57,0,0,0,0,9.14,3.87,3.87,0,0,0,3.53-2.65l4.77,2.19a8.63,8.63,0,0,1-8.3,5.33C42.61,58.92,38.28,55.09,38.28,49.48Z"></path><path class="cls-2" d="M58.08,58.59V40.34h5.53V58.59Z"></path><path class="cls-2" d="M78.48,58.59l-.66-2.13H71.25l-.66,2.13H64.32l6.74-18.25h7l6.74,18.25Zm-4-12.83-1.8,5.88h3.61Z"></path><path class="cls-2" d="M85.46,58.59V40.34H91V53.78h6.93v4.81Z"></path><path class="cls-3" d="M27.93,38V19.75h9.75c4.27,0,6.57,2.85,6.57,6.27s-2.3,6.24-6.57,6.24H33.46V38ZM38.64,26c0-1-.74-1.45-1.67-1.45H33.46v2.87H37C37.9,27.44,38.64,27,38.64,26Z"></path><path class="cls-4" d="M45.79,38V19.75H59.64v4.82H51.32v1.8h8.13v4.82H51.32v2h8.32V38Z"></path><path class="cls-5" d="M71.88,38l-2.52-5.75h-2V38H61.83V19.75h9.75c4.27,0,6.57,2.85,6.57,6.27a5.89,5.89,0,0,1-3.29,5.53L78.17,38Zm.66-12c0-1-.88-1.42-1.81-1.42H67.36v2.87h3.37C71.66,27.44,72.54,27,72.54,26Z"></path><path class="cls-6" d="M90.77,38l-4.11-6.44-1,1.37V38H80.12V19.75h5.53v6.84l4.79-6.84H97.2l-6.9,8.49L97.5,38Z"></path><path class="cls-7" d="M.66,56l2.88-4.1a8.52,8.52,0,0,0,5.88,2.35c1,0,2-.27,2-1,0-1.75-10.18,0-10.18-7.17,0-3.09,2.57-6,7.58-6a12,12,0,0,1,7.74,2.55l-2.95,3.91a9.26,9.26,0,0,0-5.37-1.8c-1.09,0-1.39.35-1.39.82,0,1.72,10.15.24,10.15,7,0,4-3,6.35-7.88,6.35A12.06,12.06,0,0,1,.66,56Z"></path><path class="cls-8" d="M17.58,49.48c0-5.61,4.36-9.45,10-9.45s10,3.84,10,9.45-4.36,9.44-10,9.44S17.58,55.09,17.58,49.48Zm14.38,0a4.38,4.38,0,1,0-8.76,0,4.38,4.38,0,1,0,8.76,0Z"></path><path class="cls-9" d="M38.28,49.48c0-5.64,4.33-9.45,10-9.45a8.53,8.53,0,0,1,8.3,5.32l-4.77,2.21a3.87,3.87,0,0,0-3.53-2.65,4.57,4.57,0,0,0,0,9.14,3.87,3.87,0,0,0,3.53-2.65l4.77,2.19a8.63,8.63,0,0,1-8.3,5.33C42.61,58.92,38.28,55.09,38.28,49.48Z"></path><path class="cls-10" d="M58.08,58.59V40.34h5.53V58.59Z"></path><path class="cls-11" d="M78.48,58.59l-.66-2.13H71.25l-.66,2.13H64.32l6.74-18.25h7l6.74,18.25Zm-4-12.83-1.8,5.88h3.61Z"></path><path class="cls-12" d="M85.46,58.59V40.34H91V53.78h6.93v4.81Z"></path><path class="cls-13" d="M57.59,15.5l-.43,1.92h-1l1.15-5.16h1l-.11.46a1.43,1.43,0,0,1,1.13-.56,1.38,1.38,0,0,1,1.41,1.55,2.19,2.19,0,0,1-2,2.38A1.41,1.41,0,0,1,57.59,15.5Zm2.13-1.59a.81.81,0,0,0-.83-.87,1.1,1.1,0,0,0-.85.45l-.3,1.29a1,1,0,0,0,.88.43A1.2,1.2,0,0,0,59.72,13.91Z"></path><path class="cls-13" d="M61.07,14.39a2.18,2.18,0,0,1,2.15-2.23,1.67,1.67,0,0,1,1.86,1.71,2.19,2.19,0,0,1-2.16,2.22A1.66,1.66,0,0,1,61.07,14.39Zm3-.48a.8.8,0,0,0-.87-.87,1.22,1.22,0,0,0-1.11,1.3.8.8,0,0,0,.87.87A1.21,1.21,0,0,0,64.06,13.91Z"></path><path class="cls-13" d="M68.58,16l-.24-2.54L67,16H66l-.31-3.73h1l.13,2.51,1.38-2.51H69l.25,2.51,1.26-2.51h1.06l-2,3.73Z"></path><path class="cls-13" d="M71.32,14.41a2.18,2.18,0,0,1,2.16-2.25,1.58,1.58,0,0,1,1.67,1.67,3.13,3.13,0,0,1-.07.62H72.3v.09c0,.32.33.74,1,.74a1.62,1.62,0,0,0,.94-.27l.3.69a2.38,2.38,0,0,1-1.32.39C72.08,16.09,71.32,15.45,71.32,14.41Zm3-.64a.25.25,0,0,0,0-.08c0-.38-.28-.72-.87-.72a1,1,0,0,0-1,.8h1.86Z"></path><path class="cls-13" d="M75.37,16l.83-3.73h1l-.11.49a1.67,1.67,0,0,1,1.32-.59l-.21,1a1.4,1.4,0,0,0-.36-.05,1.3,1.3,0,0,0-.93.45L76.35,16Z"></path><path class="cls-13" d="M78.22,14.41a2.18,2.18,0,0,1,2.16-2.25,1.58,1.58,0,0,1,1.68,1.67,3,3,0,0,1-.08.62H79.2v.09c0,.32.34.74,1,.74a1.68,1.68,0,0,0,1-.27l.3.69a2.44,2.44,0,0,1-1.33.39C79,16.09,78.22,15.45,78.22,14.41Zm3-.64v-.08c0-.38-.27-.72-.86-.72a1,1,0,0,0-1,.8h1.87Z"></path><path class="cls-13" d="M85.57,12.75,86,10.83h1L85.83,16h-1l.11-.46a1.43,1.43,0,0,1-1.12.56,1.38,1.38,0,0,1-1.43-1.55,2.2,2.2,0,0,1,2-2.38A1.41,1.41,0,0,1,85.57,12.75Zm-2.14,1.59a.81.81,0,0,0,.83.87,1.1,1.1,0,0,0,.86-.45l.28-1.29a1,1,0,0,0-.87-.43A1.21,1.21,0,0,0,83.43,14.34Z"></path><path class="cls-13" d="M89.72,15.5l-.1.49h-1l1.14-5.16h1l-.42,1.89a1.45,1.45,0,0,1,1.13-.56,1.38,1.38,0,0,1,1.42,1.55,2.2,2.2,0,0,1-2,2.38A1.42,1.42,0,0,1,89.72,15.5Zm2.13-1.59A.81.81,0,0,0,91,13a1.1,1.1,0,0,0-.85.45l-.29,1.29a1,1,0,0,0,.87.43A1.2,1.2,0,0,0,91.85,13.91Z"></path><path class="cls-13" d="M93,16.57a1.06,1.06,0,0,0,.38.05.49.49,0,0,0,.46-.25l.24-.36-.67-3.75h1l.4,2.6,1.56-2.6h1.08l-2.72,4.35a1.56,1.56,0,0,1-1.45.9,2,2,0,0,1-.62-.09Z"></path><path class="cls-14" d="M138.82,0H109a6.55,6.55,0,0,0-6.55,6.55V64.37A6.55,6.55,0,0,0,109,70.92h0a16.11,16.11,0,0,0,15.51-11.74l4.94-17.53a.93.93,0,0,0-.9-1.18H116a.94.94,0,0,1-.86-1.31l23.72-29c.37-.47,1.29-.64.92.95l-4,18.23a.93.93,0,0,0,.86,1.31h13.05a.93.93,0,0,1,.67,1.58l-19.9,20.63A1.87,1.87,0,0,0,131.8,56h7a28,28,0,0,0,28-28h0A28,28,0,0,0,138.82,0Z"></path><path class="cls-15" d="M128.52,40.47H116L121.83,43a3,3,0,0,1,1.71,3.58L120,59.18a16.11,16.11,0,0,1-12.76,11.5,6.7,6.7,0,0,0,1.74.24,16.11,16.11,0,0,0,15.51-11.74l1.18-4.2.74-2.61,3-10.72A.93.93,0,0,0,128.52,40.47Z"></path></g></g></svg>