<?xml version="1.0" encoding="UTF-8"?>
<svg width="24px" height="31px" viewBox="0 0 24 31" version="1.1" xmlns="http://www.w3.org/2000/svg" xmlns:xlink="http://www.w3.org/1999/xlink">
    <!-- Generator: Sketch 49 (51002) - http://www.bohemiancoding.com/sketch -->
    <title>PW-ICON-CHECK</title>
    <desc>Created with Sketch.</desc>
    <defs></defs>
    <g id="Welcome" stroke="none" stroke-width="1" fill="none" fill-rule="evenodd">
        <g id="HP_Forgot-Password-Reset" transform="translate(-507.000000, -294.000000)" stroke="#666666" stroke-width="2">
            <g id="NEW-PW-Copy" transform="translate(508.000000, 295.000000)">
                <g id="PW-ICON-CHECK">
                    <path d="M14.4583029,22 L2.54169712,22 C1.14376371,22 0,20.9724724 0,19.7166054 L0,10.2833946 C0,9.02752759 1.14376371,8 2.54169712,8 L14.4583029,8 C15.8562363,8 17,9.02752759 17,10.2833946 L17,19.7166054 C17,20.9724724 15.8562363,22 14.4583029,22 Z" id="Stroke-1" stroke-linecap="round" stroke-linejoin="round"></path>
                    <path d="M3,7.89889833 L3,5.21526131 C3,2.34695164 5.47499417,0 8.5001166,0 C11.5250058,0 14,2.34695164 14,5.21526131 L14,8" id="Stroke-3" stroke-linecap="round" stroke-linejoin="round"></path>
                    <path d="M14,25 C16,27 17,28 17,28 C17,28 18.6666667,25.6666667 22,21" id="Path-2"></path>
                </g>
            </g>
        </g>
    </g>
</svg>