<?xml version="1.0" encoding="UTF-8"?>
<svg width="240px" height="236px" viewBox="0 0 240 236" version="1.1" xmlns="http://www.w3.org/2000/svg" xmlns:xlink="http://www.w3.org/1999/xlink">
    <!-- Generator: Sketch 49.3 (51167) - http://www.bohemiancoding.com/sketch -->
    <title>Win Icon</title>
    <desc>Created with Sketch.</desc>
    <defs>
        <polygon id="path-1" points="13.1228 0.878 0.8768 0.878 0.8768 5.0897 13.1228 5.0897 13.1228 0.878"></polygon>
        <polygon id="path-3" points="0 236 239.931 236 239.931 0.878 0 0.878"></polygon>
    </defs>
    <g id="Page-1" stroke="none" stroke-width="1" fill="none" fill-rule="evenodd">
        <g id="BNR-Join-Carousel" transform="translate(-1005.000000, -147.000000)">
            <g id="SIGN-UP-Copy-2" transform="translate(914.000000, 111.000000)">
                <g id="Win-Icon" transform="translate(91.000000, 35.000000)">
                    <g id="REWARDS-ICON" transform="translate(60.000000, 39.000000)" stroke-linecap="round" stroke-linejoin="round" stroke-width="3">
                        <polygon id="Stroke-1" stroke="#BB0000" points="104.9497 98.808 104.5267 112.843 90.6117 110.961 85.4157 124.006 72.9827 117.479 63.6367 127.959 54.1867 117.574 41.8217 124.226 36.4937 111.234 22.5977 113.255 22.0347 99.225 8.2857 96.371 12.5547 82.995 9.19225184 80.9165544 0.6107 75.612 9.1987 64.501 0.4997 53.479 12.3687 45.975 7.9657 32.642 21.6847 29.651 22.1067 15.616 36.0217 17.497 41.2197 4.453 53.6517 10.98 62.9967 0.5 72.4467 10.885 84.8127 4.234 90.1407 17.225 104.0367 15.204 104.5997 29.234 118.3477 32.087 114.0797 45.464 126.0227 52.847 117.4357 63.957 126.1347 74.981 114.2647 82.484 118.6697 95.817"></polygon>
                        <path d="M94.6548,46.2807 C98.0578,52.3327 99.7768,59.4367 99.2208,66.9017 C97.7318,86.9207 80.4488,101.9527 60.6198,100.4767 C58.6628,100.3317 56.7548,100.0297 54.9048,99.5867" id="Stroke-3" stroke="#BB0000"></path>
                        <path d="M49.1792,97.6869 C35.3962,91.7689 26.2272,77.4839 27.4122,61.5569 C27.6912,57.8189 28.5202,54.2549 29.8132,50.9399" id="Stroke-5" stroke="#BB0000"></path>
                        <path d="M32.9194,44.7807 C39.8164,33.8307 52.3074,26.9627 66.0154,27.9817 C76.2964,28.7477 85.2434,33.8007 91.2694,41.2797" id="Stroke-7" stroke="#BB0000"></path>
                        <path d="M73.896,42.3754 C79.958,45.0834 84.539,50.3804 86.346,56.7664" id="Stroke-9" stroke="#FF0000"></path>
                        <path d="M83.3911,77.7416 C79.2771,85.1746 71.1001,89.9376 62.0731,89.2656 C59.0821,89.0446 56.2731,88.2456 53.7451,86.9876" id="Stroke-11" stroke="#FF0000"></path>
                        <path d="M42.1978,74.934 C40.0798,71.199 39.0098,66.817 39.3508,62.213 C39.8768,55.163 43.6018,49.118 49.0008,45.393" id="Stroke-13" stroke="#FF0000"></path>
                        <path d="M73.7564,65.6782 C72.9764,71.3052 67.6684,75.2172 61.9034,74.4172 C56.1384,73.6172 52.0974,68.4072 52.8784,62.7812 C53.6584,57.1552 58.9654,53.2412 64.7314,54.0412 C70.4964,54.8412 74.5374,60.0512 73.7564,65.6782 Z" id="Stroke-15" stroke="#BB0000"></path>
                        <path d="M31.0112,123.5698 L23.0692,171.8478 C23.0692,171.8478 70.7262,141.6108 70.7672,141.5888" id="Stroke-17" stroke="#BB0000"></path>
                        <path d="M96.9097,123.5698 L104.8517,171.8478 C104.8517,171.8478 66.9337,152.9728 66.8917,152.9498" id="Stroke-19" stroke="#BB0000"></path>
                        <path d="M62.9468,10.3852 L62.9468,20.8852" id="Stroke-21" stroke="#FF0000"></path>
                        <path d="M63.4468,106.3852 L63.4468,116.8852" id="Stroke-23" stroke="#FF0000"></path>
                        <path d="M115.1314,73.4213 L104.8014,71.5423" id="Stroke-25" stroke="#FF0000"></path>
                        <path d="M20.5923,56.7289 L10.2623,54.8499" id="Stroke-27" stroke="#FF0000"></path>
                        <path d="M98.1069,23.0209 L91.0109,30.7609" id="Stroke-29" stroke="#FF0000"></path>
                        <path d="M24.9751,85.1528 L16.6941,91.6078" id="Stroke-31" stroke="#FF0000"></path>
                        <path d="M97.522,104.4203 L90.693,96.4443" id="Stroke-33" stroke="#FF0000"></path>
                        <path d="M34.7007,31.8266 L27.8717,23.8506" id="Stroke-35" stroke="#FF0000"></path>
                        <path d="M116.0874,54.1059 L105.7484,55.9369" id="Stroke-37" stroke="#FF0000"></path>
                        <path d="M21.645,71.3344 L11.306,73.1654" id="Stroke-39" stroke="#FF0000"></path>
                        <path d="M108.772,89.4496 L99.612,84.3166" id="Stroke-41" stroke="#FF0000"></path>
                        <path d="M24.7818,42.9545 L15.6218,37.8205" id="Stroke-43" stroke="#FF0000"></path>
                        <path d="M82.0083,113.9526 L78.3453,104.1126" id="Stroke-45" stroke="#FF0000"></path>
                        <path d="M48.0484,24.1586 L44.3854,14.3186" id="Stroke-47" stroke="#FF0000"></path>
                        <path d="M81.2232,14.2114 L77.5242,24.0384" id="Stroke-49" stroke="#FF0000"></path>
                        <path d="M47.8696,104.2328 L44.1706,114.0588" id="Stroke-51" stroke="#FF0000"></path>
                        <path d="M109.1968,36.0619 L101.1788,42.8409" id="Stroke-53" stroke="#FF0000"></path>
                        <path d="M36.2144,98.4301 L28.1964,105.2091" id="Stroke-55" stroke="#FF0000"></path>
                    </g>
                    <g id="CONFETTI">
                        <polygon id="Fill-1" fill="#FF0000" points="74.5985 39.8022 69.4025 36.8022 75.4025 26.4092 80.5985 29.4092"></polygon>
                        <polygon id="Fill-2" fill="#FF0000" points="214.7186 175.8525 209.1666 178.1285 204.6146 167.0255 210.1656 164.7495"></polygon>
                        <polygon id="Fill-3" fill="#FF0000" points="165 38.106 171 38.106 171 26.106 165 26.106"></polygon>
                        <polygon id="Fill-4" fill="#FF0000" points="0 115.439 6 115.439 6 103.439 0 103.439"></polygon>
                        <polygon id="Fill-5" fill="#FF0000" points="62.7186 14.5195 57.1666 16.7955 52.6146 5.6925 58.1656 3.4165"></polygon>
                        <polygon id="Fill-6" fill="#FF0000" points="228.735 111.4684 233.932 114.4694 239.931 104.0774 239.931 104.0754 234.735 101.0764"></polygon>
                        <polygon id="Fill-7" fill="#FF0000" points="133.2186 31.8754 127.6676 29.2314 123.1146 18.1284 128.6666 20.7724"></polygon>
                        <polygon id="Fill-8" fill="#FF0000" points="46.8349 195.3603 46.1459 189.2503 53.1649 179.5173 53.8549 185.6283"></polygon>
                        <g id="Group-45" transform="translate(0.000000, 0.122000)">
                            <path d="M53.7616,65.8145 C53.7616,64.7655 54.6126,63.9155 55.6606,63.9155 C56.7106,63.9155 57.5616,64.7655 57.5616,65.8145 C57.5616,66.8635 56.7106,67.7135 55.6606,67.7135 C54.6126,67.7135 53.7616,66.8635 53.7616,65.8145 Z" id="Fill-9" fill="#FF0000"></path>
                            <path d="M222.1688,141.8145 C222.1688,141.1715 222.6898,140.6505 223.3328,140.6505 C223.9768,140.6505 224.4968,141.1715 224.4968,141.8145 C224.4968,142.4575 223.9768,142.9785 223.3328,142.9785 C222.6898,142.9785 222.1688,142.4575 222.1688,141.8145" id="Fill-11" fill="#FF0000"></path>
                            <path d="M95.2772,228.8359 C95.2772,228.1929 95.7982,227.6719 96.4412,227.6719 C97.0842,227.6719 97.6052,228.1929 97.6052,228.8359 C97.6052,229.4789 97.0842,229.9999 96.4412,229.9999 C95.7982,229.9999 95.2772,229.4789 95.2772,228.8359" id="Fill-13" fill="#FF0000"></path>
                            <path d="M21.5028,47.8194 C22.1458,47.8194 22.6668,48.3404 22.6668,48.9834 C22.6668,49.6274 22.1458,50.1474 21.5028,50.1474 C20.8598,50.1474 20.3388,49.6274 20.3388,48.9834 C20.3388,48.3404 20.8598,47.8194 21.5028,47.8194 Z" id="Fill-15" fill="#FF0000"></path>
                            <polygon id="Fill-17" fill="#FF0000" points="180.4979 161.2383 181.1879 155.1283 177.6679 148.8953 176.9779 155.0063"></polygon>
                            <g id="Group-21" transform="translate(100.000000, 0.000000)">
                                <mask id="mask-2" fill="white">
                                    <use xlink:href="#path-1"></use>
                                </mask>
                                <g id="Clip-20"></g>
                                <polygon id="Fill-19" fill="#FF0000" mask="url(#mask-2)" points="0.8768 4.5967 7.0058 5.0897 13.1228 1.3707 6.9938 0.8777"></polygon>
                            </g>
                            <polygon id="Fill-22" fill="#FF0000" points="34.4559 74.5967 28.3269 75.0897 22.2109 71.3707 28.3399 70.8777"></polygon>
                            <mask id="mask-4" fill="white">
                                <use xlink:href="#path-3"></use>
                            </mask>
                            <g id="Clip-25"></g>
                            <polygon id="Fill-24" fill="#FF0000" mask="url(#mask-4)" points="136.441 236 142.441 236 142.441 224 136.441 224"></polygon>
                            <polygon id="Fill-26" fill="#FF0000" mask="url(#mask-4)" points="197.9999 112.9834 204.1289 113.4764 210.2459 109.7584 204.1169 109.2654"></polygon>
                            <path d="M48.4413,156 C48.4413,155.357 48.9623,154.836 49.6053,154.836 C50.2483,154.836 50.7693,155.357 50.7693,156 C50.7693,156.643 50.2483,157.164 49.6053,157.164 C48.9623,157.164 48.4413,156.643 48.4413,156" id="Fill-27" fill="#FF0000" mask="url(#mask-4)"></path>
                            <path d="M151.1083,4.3335 C151.0073,4.8765 150.6813,5.3665 150.3243,5.4935 C149.9663,5.6225 148.7283,5.5225 148.4573,5.4875 C148.1863,5.4535 147.9303,5.4025 147.8263,5.1855 C147.8263,5.1855 147.6593,5.0035 147.6343,4.8305 C147.6113,4.6575 147.9223,4.2475 148.2173,3.7905 C148.5123,3.3335 148.7623,3.2585 149.1973,3.0805 C149.6303,2.9005 150.7683,2.8475 151.1403,3.0345 C151.5133,3.2225 151.2083,3.7915 151.1083,4.3335 M153.1603,2.2435 C152.1313,1.9115 151.1813,1.8935 150.4833,1.8625 C149.7873,1.8335 149.4053,1.7885 149.0683,1.8465 C147.6293,2.0965 146.6413,3.2325 146.4203,3.8955 C146.0873,4.8855 145.0413,7.1855 147.2783,8.9785 C147.8173,9.4095 148.5653,9.7545 149.2013,10.0165 C149.7483,10.2425 150.3323,10.3915 150.9273,10.3575 C152.0743,10.2935 153.0733,9.5895 153.7273,8.6775 C154.3853,7.7615 154.8463,6.7015 154.9643,5.5745 C155.1373,3.9205 154.1883,2.5725 153.1603,2.2435" id="Fill-28" fill="#FF0000" mask="url(#mask-4)"></path>
                            <path d="M154.0018,9.5435 L154.0018,9.2865 L153.9508,9.2865 L153.8768,9.4735 L153.8018,9.2865 L153.7518,9.2865 L153.7518,9.5435 L153.7838,9.5435 L153.7838,9.3315 L153.8718,9.5435 L153.8818,9.5435 L153.9688,9.3315 L153.9688,9.5435 L154.0018,9.5435 Z M153.7098,9.3165 L153.7098,9.2865 L153.5318,9.2865 L153.5318,9.3165 L153.6048,9.3165 L153.6048,9.5435 L153.6368,9.5435 L153.6368,9.3165 L153.7098,9.3165 Z" id="Fill-29" fill="#FF0000" mask="url(#mask-4)"></path>
                            <path d="M48.5809,38.5029 C48.4809,39.0459 48.1549,39.5359 47.7979,39.6629 C47.4399,39.7919 46.2009,39.6919 45.9309,39.6569 C45.6599,39.6229 45.4039,39.5719 45.2999,39.3549 C45.2999,39.3549 45.1329,39.1729 45.1079,38.9999 C45.0839,38.8269 45.3959,38.4169 45.6909,37.9599 C45.9859,37.5029 46.2359,37.4279 46.6699,37.2499 C47.1029,37.0699 48.2419,37.0169 48.6139,37.2039 C48.9869,37.3919 48.6819,37.9609 48.5809,38.5029 M50.6339,36.4129 C49.6039,36.0809 48.6549,36.0629 47.9569,36.0319 C47.2609,36.0029 46.8789,35.9579 46.5419,36.0159 C45.1029,36.2659 44.1139,37.4019 43.8939,38.0649 C43.5609,39.0549 42.5139,41.3549 44.7519,43.1479 C45.2899,43.5789 46.0389,43.9239 46.6749,44.1859 C47.2219,44.4119 47.8059,44.5609 48.3999,44.5269 C49.5469,44.4629 50.5469,43.7589 51.2009,42.8469 C51.8589,41.9309 52.3189,40.8709 52.4369,39.7439 C52.6109,38.0899 51.6609,36.7419 50.6339,36.4129" id="Fill-30" fill="#FF0000" mask="url(#mask-4)"></path>
                            <path d="M51.4745,43.7129 L51.4745,43.4559 L51.4245,43.4559 L51.3495,43.6429 L51.2755,43.4559 L51.2245,43.4559 L51.2245,43.7129 L51.2575,43.7129 L51.2575,43.4999 L51.3455,43.7129 L51.3545,43.7129 L51.4425,43.4999 L51.4425,43.7129 L51.4745,43.7129 Z M51.1825,43.4859 L51.1825,43.4559 L51.0045,43.4559 L51.0045,43.4859 L51.0785,43.4859 L51.0785,43.7129 L51.1105,43.7129 L51.1105,43.4859 L51.1825,43.4859 Z" id="Fill-31" fill="#FF0000" mask="url(#mask-4)"></path>
                            <path d="M202.3729,62.3643 C202.2429,63.0713 201.8179,63.7093 201.3519,63.8753 C200.8879,64.0423 199.2739,63.9123 198.9219,63.8673 C198.5689,63.8223 198.2359,63.7573 198.0999,63.4733 C198.0999,63.4733 197.8829,63.2373 197.8509,63.0113 C197.8189,62.7863 198.2269,62.2523 198.6099,61.6573 C198.9939,61.0623 199.3189,60.9643 199.8849,60.7323 C200.4489,60.4993 201.9319,60.4283 202.4159,60.6733 C202.9019,60.9173 202.5039,61.6573 202.3729,62.3643 M205.0459,59.6413 C203.7059,59.2103 202.4699,59.1863 201.5609,59.1463 C200.6529,59.1083 200.1559,59.0493 199.7179,59.1263 C197.8449,59.4513 196.5569,60.9303 196.2689,61.7943 C195.8369,63.0833 194.4729,66.0773 197.3869,68.4123 C198.0879,68.9733 199.0619,69.4233 199.8909,69.7643 C200.6019,70.0583 201.3629,70.2523 202.1379,70.2083 C203.6309,70.1253 204.9329,69.2083 205.7849,68.0203 C206.6419,66.8273 207.2409,65.4473 207.3949,63.9793 C207.6209,61.8263 206.3849,60.0713 205.0459,59.6413" id="Fill-32" fill="#FF0000" mask="url(#mask-4)"></path>
                            <path d="M206.1415,69.1484 L206.1415,68.8134 L206.0765,68.8134 L205.9785,69.0574 L205.8805,68.8134 L205.8155,68.8134 L205.8155,69.1484 L205.8585,69.1484 L205.8585,68.8724 L205.9725,69.1484 L205.9845,69.1484 L206.0985,68.8724 L206.0985,69.1484 L206.1415,69.1484 Z M205.7605,68.8534 L205.7605,68.8134 L205.5295,68.8134 L205.5295,68.8534 L205.6235,68.8534 L205.6235,69.1484 L205.6655,69.1484 L205.6655,68.8534 L205.7605,68.8534 Z" id="Fill-33" fill="#FF0000" mask="url(#mask-4)"></path>
                            <path d="M41.579,133.5615 C41.455,134.2335 41.052,134.8395 40.609,134.9975 C40.168,135.1565 38.635,135.0335 38.3,134.9905 C37.965,134.9475 37.648,134.8845 37.518,134.6165 C37.518,134.6165 37.312,134.3905 37.282,134.1765 C37.253,133.9625 37.639,133.4565 38.004,132.8905 C38.368,132.3255 38.678,132.2315 39.215,132.0115 C39.751,131.7905 41.159,131.7225 41.62,131.9555 C42.081,132.1875 41.703,132.8905 41.579,133.5615 M44.118,130.9755 C42.845,130.5655 41.67,130.5425 40.807,130.5045 C39.944,130.4685 39.473,130.4125 39.056,130.4855 C37.276,130.7945 36.053,132.2005 35.779,133.0195 C35.368,134.2455 34.072,137.0895 36.841,139.3075 C37.508,139.8415 38.433,140.2685 39.22,140.5925 C39.896,140.8725 40.619,141.0555 41.355,141.0145 C42.773,140.9355 44.011,140.0645 44.82,138.9365 C45.635,137.8025 46.204,136.4915 46.35,135.0965 C46.564,133.0505 45.39,131.3835 44.118,130.9755" id="Fill-34" fill="#FF0000" mask="url(#mask-4)"></path>
                            <path d="M45.1591,140.0078 L45.1591,139.6898 L45.0971,139.6898 L45.0041,139.9208 L44.9121,139.6898 L44.8491,139.6898 L44.8491,140.0078 L44.8891,140.0078 L44.8891,139.7438 L44.9991,140.0078 L45.0101,140.0078 L45.1191,139.7438 L45.1191,140.0078 L45.1591,140.0078 Z M44.7981,139.7278 L44.7981,139.6898 L44.5781,139.6898 L44.5781,139.7278 L44.6671,139.7278 L44.6671,140.0078 L44.7081,140.0078 L44.7081,139.7278 L44.7981,139.7278 Z" id="Fill-35" fill="#FF0000" mask="url(#mask-4)"></path>
                            <path d="M189.6845,181.7139 C189.5835,182.2569 189.2575,182.7459 188.9005,182.8739 C188.5425,183.0019 187.3045,182.9019 187.0335,182.8679 C186.7625,182.8329 186.5065,182.7829 186.4025,182.5659 C186.4025,182.5659 186.2355,182.3839 186.2105,182.2109 C186.1875,182.0369 186.4985,181.6279 186.7935,181.1709 C187.0885,180.7139 187.3385,180.6389 187.7735,180.4599 C188.2065,180.2809 189.3445,180.2279 189.7165,180.4149 C190.0895,180.6029 189.7845,181.1709 189.6845,181.7139 M191.7365,179.6229 C190.7075,179.2909 189.7575,179.2739 189.0595,179.2429 C188.3635,179.2129 187.9815,179.1679 187.6445,179.2269 C186.2055,179.4769 185.2175,180.6119 184.9965,181.2759 C184.6635,182.2659 183.6175,184.5659 185.8545,186.3589 C186.3935,186.7889 187.1415,187.1349 187.7775,187.3969 C188.3245,187.6219 188.9085,187.7719 189.5035,187.7369 C190.6505,187.6739 191.6495,186.9699 192.3035,186.0579 C192.9615,185.1419 193.4225,184.0809 193.5405,182.9539 C193.7135,181.3009 192.7645,179.9529 191.7365,179.6229" id="Fill-36" fill="#FF0000" mask="url(#mask-4)"></path>
                            <path d="M192.578,186.9238 L192.578,186.6668 L192.527,186.6668 L192.453,186.8538 L192.378,186.6668 L192.328,186.6668 L192.328,186.9238 L192.36,186.9238 L192.36,186.7108 L192.448,186.9238 L192.458,186.9238 L192.545,186.7108 L192.545,186.9238 L192.578,186.9238 Z M192.286,186.6968 L192.286,186.6668 L192.108,186.6668 L192.108,186.6968 L192.181,186.6968 L192.181,186.9238 L192.213,186.9238 L192.213,186.6968 L192.286,186.6968 Z" id="Fill-37" fill="#FF0000" mask="url(#mask-4)"></path>
                            <path d="M202.8495,28.7813 C202.7665,28.6703 202.6665,28.5073 202.5995,28.2923 C202.5305,28.0733 202.5125,27.8943 202.5115,27.7703 C202.5095,27.6543 202.5505,27.4543 202.5505,27.4543 C202.5505,27.4543 202.3445,27.4013 202.2305,27.3513 C202.1115,27.2993 201.9495,27.2153 201.7825,27.0853 C201.6405,26.9743 201.5305,26.8343 201.4555,26.7203 C201.3835,26.6103 201.3015,26.4263 201.3015,26.4263 C201.3015,26.4263 201.1025,26.4603 200.9705,26.4683 C200.8335,26.4763 200.6605,26.4753 200.4955,26.4453 C200.1835,26.3863 199.8415,26.1603 199.8405,26.1603 L199.7375,26.0913 C199.7375,26.0913 199.6035,26.2443 199.5075,26.3193 C199.4075,26.3963 199.2575,26.4903 199.0655,26.5533 C198.8615,26.6203 198.6865,26.6303 198.5635,26.6253 C198.4495,26.6193 198.2325,26.5563 198.2325,26.5563 C198.2325,26.5563 198.1785,26.8043 198.1215,26.9413 C198.0625,27.0843 197.9665,27.2633 197.8205,27.4193 C197.6795,27.5683 197.5395,27.6553 197.4375,27.7043 C197.3865,27.7293 197.3435,27.7453 197.3165,27.7543 C197.2915,27.7623 197.0955,27.8043 197.0955,27.8043 C197.0955,27.8043 197.1885,27.9843 197.1975,28.0083 C197.2085,28.0373 197.2225,28.0833 197.2355,28.1443 C197.2575,28.2683 197.2695,28.4563 197.2145,28.7033 C197.1635,28.9353 197.0855,29.0893 197.0235,29.1823 C196.9675,29.2653 196.7985,29.4083 196.7985,29.4083 C196.7985,29.4083 196.9885,29.5853 197.0765,29.6973 C197.1655,29.8123 197.2675,29.9683 197.3255,30.1443 C197.3895,30.3403 197.3965,30.5133 197.3885,30.6363 C197.3795,30.7533 197.3135,30.9683 197.3135,30.9683 C197.3135,30.9683 197.5565,31.0313 197.6955,31.0933 C197.8385,31.1553 198.0175,31.2503 198.1725,31.3863 C198.3145,31.5103 198.4025,31.6473 198.4535,31.7523 C198.4805,31.8043 198.4965,31.8483 198.5065,31.8793 C198.5155,31.9053 198.5525,32.0573 198.5525,32.0573 C198.5525,32.0573 198.7865,32.0073 198.9275,31.9923 C199.0745,31.9773 199.2625,31.9713 199.4415,32.0003 C199.7465,32.0493 200.0425,32.3083 200.0435,32.3103 L200.1435,32.3973 L200.2375,32.3043 C200.2385,32.3033 200.5695,31.9773 200.9235,31.8643 C201.0975,31.8093 201.2645,31.7973 201.3875,31.7993 C201.5055,31.8013 201.7325,31.8443 201.7325,31.8443 C201.7325,31.8443 201.7605,31.6033 201.8025,31.4773 C201.8465,31.3453 201.9215,31.1783 202.0485,31.0313 C202.1645,30.8953 202.3085,30.7983 202.4265,30.7333 C202.5405,30.6703 202.7455,30.5993 202.7455,30.5993 C202.7455,30.5993 202.6985,30.3923 202.6865,30.2663 C202.6735,30.1373 202.6685,29.9683 202.6965,29.8013 C202.7455,29.5103 203.0095,29.1353 203.0135,29.1313 L203.0875,29.0273 C203.0875,29.0273 202.9275,28.8863 202.8495,28.7813" id="Fill-38" fill="#FF0000" mask="url(#mask-4)"></path>
                            <path d="M25.5536,115.7812 C25.4706,115.6712 25.3696,115.5072 25.3026,115.2922 C25.2346,115.0742 25.2156,114.8932 25.2146,114.7702 C25.2136,114.6542 25.2546,114.4552 25.2546,114.4552 C25.2546,114.4552 25.0486,114.4012 24.9346,114.3512 C24.8146,114.3002 24.6536,114.2162 24.4866,114.0852 C24.3436,113.9742 24.2336,113.8342 24.1596,113.7192 C24.0866,113.6102 24.0046,113.4272 24.0046,113.4272 C24.0046,113.4272 23.8056,113.4612 23.6736,113.4682 C23.5376,113.4762 23.3636,113.4752 23.1996,113.4442 C22.8866,113.3862 22.5456,113.1612 22.5446,113.1602 L22.4416,113.0912 C22.4416,113.0912 22.3076,113.2442 22.2116,113.3182 C22.1116,113.3962 21.9616,113.4902 21.7696,113.5532 C21.5656,113.6212 21.3906,113.6312 21.2676,113.6252 C21.1526,113.6192 20.9366,113.5562 20.9366,113.5562 C20.9366,113.5562 20.8826,113.8032 20.8246,113.9412 C20.7656,114.0842 20.6696,114.2622 20.5246,114.4192 C20.3836,114.5682 20.2436,114.6552 20.1416,114.7042 C20.0896,114.7292 20.0476,114.7462 20.0196,114.7542 C19.9956,114.7612 19.7996,114.8032 19.7996,114.8032 C19.7996,114.8032 19.8926,114.9842 19.9016,115.0092 C19.9116,115.0382 19.9266,115.0842 19.9386,115.1442 C19.9606,115.2682 19.9736,115.4562 19.9186,115.7032 C19.8676,115.9342 19.7886,116.0892 19.7276,116.1812 C19.6716,116.2652 19.5016,116.4092 19.5016,116.4092 C19.5016,116.4092 19.6926,116.5852 19.7796,116.6962 C19.8696,116.8122 19.9716,116.9682 20.0286,117.1432 C20.0936,117.3402 20.1006,117.5122 20.0916,117.6362 C20.0836,117.7542 20.0176,117.9682 20.0176,117.9682 C20.0176,117.9682 20.2606,118.0312 20.3996,118.0932 C20.5416,118.1552 20.7216,118.2512 20.8756,118.3862 C21.0186,118.5102 21.1056,118.6472 21.1576,118.7522 C21.1836,118.8042 21.2006,118.8482 21.2096,118.8792 C21.2196,118.9052 21.2556,119.0572 21.2556,119.0572 C21.2556,119.0572 21.4896,119.0072 21.6316,118.9922 C21.7776,118.9772 21.9656,118.9702 22.1456,119.0002 C22.4506,119.0492 22.7456,119.3082 22.7476,119.3102 L22.8466,119.3972 L22.9416,119.3032 C22.9426,119.3032 23.2736,118.9772 23.6276,118.8642 C23.8016,118.8092 23.9676,118.7972 24.0916,118.8002 C24.2096,118.8012 24.4366,118.8442 24.4366,118.8442 C24.4366,118.8442 24.4646,118.6032 24.5066,118.4772 C24.5496,118.3442 24.6246,118.1782 24.7526,118.0312 C24.8676,117.8952 25.0126,117.7982 25.1306,117.7322 C25.2446,117.6702 25.4496,117.5992 25.4496,117.5992 C25.4496,117.5992 25.4026,117.3922 25.3896,117.2652 C25.3766,117.1372 25.3716,116.9682 25.4006,116.8012 C25.4496,116.5102 25.7136,116.1352 25.7166,116.1312 L25.7916,116.0272 C25.7916,116.0272 25.6316,115.8862 25.5536,115.7812" id="Fill-39" fill="#FF0000" mask="url(#mask-4)"></path>
                            <path d="M43.8681,90.7705 C43.4891,90.5205 43.0511,90.3745 42.6091,90.2745 C42.1841,90.1775 41.7521,90.0935 41.3131,90.1185 C40.8911,90.1415 40.4761,90.2485 40.0841,90.3985 C39.1891,90.7425 38.3311,91.2835 37.7801,92.0725 C37.6141,92.3115 37.4721,92.5655 37.3321,92.8195 C37.1901,93.0755 37.0531,93.3215 36.8911,93.5485 C36.8211,93.6345 36.7471,93.7165 36.6681,93.7945 C36.5971,93.8615 36.4521,93.9875 36.3591,93.9565 C36.2981,93.9345 36.2791,93.8395 36.2721,93.7785 C36.2931,93.2395 36.5921,92.8215 36.8951,92.4415 C37.6191,91.5335 37.8981,90.4525 37.6551,89.4755 C37.5071,88.8945 37.1231,88.4285 36.7441,87.9795 C36.5051,87.6955 36.2601,87.3955 36.0881,87.0645 C36.0021,86.8705 35.9411,86.6645 35.9201,86.4575 C35.9121,86.3885 35.9121,86.3185 35.9151,86.2495 C35.9181,86.1855 35.9381,86.1095 35.9291,86.0465 C35.8291,86.0755 35.7221,86.1725 35.6411,86.2355 C35.4881,86.3555 35.3531,86.4955 35.2271,86.6415 C34.3741,87.6315 33.6981,88.9915 34.0331,90.3095 C34.2231,91.0545 34.5831,91.6525 35.0491,92.2595 C35.2091,92.4685 35.3691,92.6765 35.5121,92.8975 C35.6481,93.1095 35.7771,93.3295 35.8601,93.5675 C35.8841,93.6335 35.9021,93.7005 35.9191,93.7685 C35.9281,93.8025 35.9351,93.8365 35.9421,93.8715 C35.9521,93.9175 35.9851,93.9865 35.9461,94.0305 C35.8911,94.0895 35.7661,94.0865 35.6761,94.0715 C35.3951,94.0005 35.1471,93.7485 34.8961,93.2875 C34.6691,92.8635 34.4121,92.4235 33.9841,92.0465 C33.6361,91.7405 33.2121,91.5055 32.7701,91.3615 C32.3171,91.2135 31.8401,91.1345 31.3631,91.1665 C30.7571,91.2075 30.1751,91.4295 29.5621,91.3695 C29.4041,91.3535 29.2481,91.3195 29.1001,91.2595 C29.0351,91.2345 28.9731,91.2015 28.9131,91.1655 C28.8571,91.1325 28.7991,91.0795 28.7381,91.0575 C28.7161,91.1575 28.7531,91.2975 28.7701,91.3975 C28.8471,91.8175 29.0371,92.2385 29.2431,92.6115 C29.4371,92.9635 29.6981,93.2945 30.0091,93.5545 C30.3111,93.8075 30.6551,94.0225 31.0151,94.1855 C31.2251,94.2815 31.4441,94.3615 31.6641,94.4295 C32.1101,94.5695 32.5761,94.6765 33.0451,94.6975 C33.4861,94.7155 33.9201,94.6335 34.3501,94.5505 C34.7471,94.4715 35.3021,94.3835 35.6861,94.3905 C35.7351,94.3905 35.7981,94.4045 35.7991,94.4595 C35.8021,94.6025 35.6081,94.7085 35.5041,94.7775 C35.4371,94.8205 35.3621,94.8505 35.2881,94.8775 C35.0991,94.9475 34.9031,94.9825 34.7021,94.9985 C34.5721,95.0085 34.4401,95.0105 34.3101,95.0055 C33.7921,94.9865 33.2351,94.9825 32.6421,95.1695 C31.5351,95.5245 30.5781,96.4745 30.2051,97.5905 C30.1611,97.7305 30.1191,97.8675 30.0821,98.0035 C29.9591,98.4525 29.8191,98.9925 29.4251,99.2865 C29.3681,99.3285 29.3071,99.3645 29.2451,99.3975 C29.1871,99.4275 29.1091,99.4505 29.0601,99.4905 C29.1391,99.5605 29.2841,99.6025 29.3831,99.6385 C29.5721,99.7075 29.7681,99.7495 29.9661,99.7815 C31.0311,99.9535 32.0801,99.7585 32.9761,99.1665 C33.2331,98.9975 33.4831,98.8035 33.7101,98.5985 C33.9921,98.3435 34.2571,98.0595 34.4921,97.7635 C34.8741,97.2765 35.0621,96.7275 35.2371,96.1975 C35.3961,95.7235 35.5791,95.2915 35.8591,94.8985 C35.9051,94.8485 35.9891,94.7955 36.0741,94.8325 C36.1811,94.8795 36.2121,94.9675 36.2441,95.0205 C36.3881,95.3135 36.5551,95.7475 36.5761,95.8045 C36.9071,96.6805 37.0441,97.6185 37.0031,98.5495 C36.9641,99.4455 36.8561,100.3395 36.5721,101.1945 C36.4901,101.4405 36.3941,101.6815 36.2851,101.9165 C36.1391,102.2255 35.9671,102.5165 35.7221,102.7605 C35.7031,102.7805 35.4721,102.9605 35.4721,102.9635 C35.4721,102.9665 35.4731,102.9685 35.4741,102.9715 C35.6741,103.0175 36.1181,103.0985 36.3881,102.9875 C36.4541,102.8935 36.4871,102.7605 36.5231,102.6605 C36.5911,102.4735 36.6511,102.2855 36.7061,102.0935 C36.8501,101.5845 36.9701,101.0625 37.0731,100.5425 C37.2271,99.7645 37.3091,98.9705 37.2911,98.1765 C37.2851,97.9235 37.2681,97.6715 37.2411,97.4205 C37.1941,96.9995 37.1161,96.5825 37.0041,96.1715 C36.9731,96.0625 36.7641,95.2985 36.5651,94.9025 C36.5621,94.8435 36.5811,94.8425 36.5971,94.8325 C36.6131,94.8245 36.6531,94.8365 36.6881,94.8505 C36.9541,94.9765 37.1701,95.2835 37.3481,95.7755 C37.5201,96.2465 37.7201,96.7445 38.1151,97.2085 C38.8541,98.0765 40.1011,98.6015 41.2891,98.5465 C41.4361,98.5375 41.5821,98.5275 41.7241,98.5135 C42.1911,98.4675 42.7521,98.4055 43.1741,98.6555 C43.2341,98.6915 43.2901,98.7335 43.3451,98.7775 C43.3941,98.8185 43.4431,98.8805 43.5001,98.9105 C43.5371,98.8155 43.5231,98.6715 43.5201,98.5705 C43.5161,98.3775 43.4831,98.1875 43.4411,97.9995 C43.2141,96.9895 42.6451,96.1185 41.7591,95.5225 C41.5051,95.3525 41.2311,95.1965 40.9551,95.0645 C40.6111,94.9015 40.2471,94.7625 39.8821,94.6555 C39.2831,94.4825 38.6961,94.5055 38.1321,94.5345 C37.6601,94.5535 37.2111,94.5735 36.7671,94.4825 C36.7291,94.4665 36.7091,94.4435 36.6981,94.3975 C36.6861,94.3505 36.7301,94.2935 36.7651,94.2575 C37.0091,94.0365 37.4021,94.0055 38.0121,94.1665 C38.5131,94.2935 39.0521,94.4135 39.6511,94.3565 C39.8541,94.3355 40.0551,94.2935 40.2541,94.2355 C40.2651,94.2325 40.2761,94.2295 40.2881,94.2265 C40.3071,94.2205 40.3261,94.2145 40.3451,94.2085 C41.2331,93.9415 42.0591,93.3385 42.5641,92.5575 C42.6411,92.4325 42.7171,92.3105 42.7871,92.1865 C43.0171,91.7845 43.2881,91.2955 43.7381,91.0995 C43.8031,91.0715 43.8701,91.0505 43.9371,91.0325 C44.0011,91.0155 44.0801,91.0115 44.1381,90.9835 C44.0801,90.8985 43.9531,90.8275 43.8681,90.7705" id="Fill-40" fill="#FF0000" mask="url(#mask-4)"></path>
                            <path d="M223.745,86.2129 C223.366,85.9629 222.928,85.8169 222.486,85.7169 C222.061,85.6199 221.629,85.5359 221.19,85.5609 C220.768,85.5839 220.353,85.6909 219.961,85.8409 C219.066,86.1859 218.208,86.7259 217.657,87.5149 C217.491,87.7539 217.349,88.0079 217.209,88.2619 C217.068,88.5179 216.93,88.7639 216.768,88.9909 C216.698,89.0769 216.624,89.1589 216.545,89.2379 C216.474,89.3049 216.329,89.4299 216.236,89.3989 C216.175,89.3769 216.156,89.2819 216.149,89.2209 C216.17,88.6819 216.469,88.2649 216.772,87.8839 C217.496,86.9759 217.775,85.8949 217.532,84.9179 C217.384,84.3369 217,83.8709 216.621,83.4219 C216.382,83.1379 216.137,82.8379 215.965,82.5069 C215.879,82.3129 215.818,82.1079 215.797,81.9009 C215.789,81.8309 215.789,81.7619 215.792,81.6919 C215.795,81.6279 215.815,81.5519 215.806,81.4889 C215.706,81.5179 215.599,81.6149 215.518,81.6779 C215.365,81.7979 215.23,81.9389 215.104,82.0849 C214.251,83.0739 213.575,84.4339 213.911,85.7529 C214.1,86.4969 214.46,87.0949 214.926,87.7019 C215.086,87.9109 215.246,88.1199 215.389,88.3409 C215.525,88.5519 215.654,88.7729 215.737,89.0099 C215.761,89.0759 215.779,89.1429 215.796,89.2109 C215.805,89.2449 215.812,89.2789 215.819,89.3139 C215.829,89.3599 215.862,89.4299 215.823,89.4729 C215.768,89.5319 215.643,89.5289 215.553,89.5139 C215.272,89.4429 215.024,89.1919 214.773,88.7299 C214.546,88.3069 214.289,87.8659 213.861,87.4889 C213.513,87.1829 213.089,86.9479 212.647,86.8049 C212.194,86.6559 211.717,86.5769 211.24,86.6089 C210.634,86.6509 210.052,86.8719 209.439,86.8119 C209.281,86.7959 209.125,86.7619 208.977,86.7029 C208.912,86.6769 208.85,86.6439 208.79,86.6089 C208.734,86.5749 208.676,86.5219 208.615,86.4999 C208.594,86.6009 208.63,86.7399 208.647,86.8399 C208.724,87.2599 208.914,87.6809 209.12,88.0539 C209.314,88.4059 209.575,88.7369 209.886,88.9969 C210.188,89.2499 210.532,89.4649 210.892,89.6279 C211.102,89.7239 211.321,89.8039 211.541,89.8729 C211.987,90.0119 212.453,90.1189 212.922,90.1399 C213.363,90.1579 213.797,90.0769 214.227,89.9939 C214.624,89.9149 215.179,89.8259 215.563,89.8329 C215.612,89.8329 215.675,89.8469 215.676,89.9019 C215.679,90.0449 215.485,90.1519 215.381,90.2199 C215.314,90.2629 215.239,90.2929 215.165,90.3199 C214.976,90.3899 214.78,90.4249 214.579,90.4419 C214.449,90.4509 214.317,90.4529 214.187,90.4479 C213.669,90.4289 213.112,90.4249 212.519,90.6119 C211.412,90.9669 210.455,91.9179 210.082,93.0329 C210.038,93.1729 209.996,93.3099 209.959,93.4469 C209.836,93.8949 209.696,94.4349 209.302,94.7289 C209.245,94.7709 209.184,94.8069 209.122,94.8399 C209.064,94.8699 208.986,94.8929 208.937,94.9329 C209.016,95.0039 209.161,95.0449 209.26,95.0809 C209.449,95.1499 209.645,95.1919 209.843,95.2239 C210.908,95.3959 211.957,95.2009 212.853,94.6089 C213.11,94.4399 213.36,94.2459 213.587,94.0409 C213.869,93.7859 214.134,93.5019 214.369,93.2059 C214.751,92.7199 214.939,92.1699 215.114,91.6399 C215.273,91.1659 215.456,90.7339 215.736,90.3409 C215.782,90.2909 215.866,90.2379 215.951,90.2749 C216.058,90.3229 216.089,90.4099 216.121,90.4629 C216.265,90.7569 216.432,91.1899 216.453,91.2469 C216.784,92.1239 216.921,93.0609 216.88,93.9919 C216.841,94.8879 216.733,95.7829 216.449,96.6379 C216.367,96.8829 216.271,97.1239 216.162,97.3589 C216.016,97.6689 215.844,97.9589 215.599,98.2029 C215.58,98.2229 215.349,98.4029 215.349,98.4059 C215.349,98.4089 215.35,98.4109 215.351,98.4139 C215.551,98.4599 215.995,98.5419 216.265,98.4299 C216.331,98.3359 216.364,98.2029 216.4,98.1029 C216.468,97.9159 216.528,97.7279 216.583,97.5359 C216.727,97.0269 216.847,96.5049 216.95,95.9859 C217.104,95.2069 217.186,94.4129 217.168,93.6189 C217.162,93.3669 217.145,93.1139 217.118,92.8629 C217.071,92.4419 216.993,92.0249 216.881,91.6149 C216.85,91.5049 216.641,90.7409 216.442,90.3449 C216.439,90.2859 216.458,90.2849 216.474,90.2749 C216.49,90.2669 216.53,90.2789 216.565,90.2929 C216.831,90.4199 217.047,90.7259 217.225,91.2189 C217.397,91.6889 217.597,92.1879 217.992,92.6519 C218.731,93.5189 219.978,94.0439 221.166,93.9899 C221.313,93.9809 221.459,93.9699 221.601,93.9559 C222.068,93.9099 222.629,93.8479 223.051,94.0979 C223.111,94.1339 223.167,94.1759 223.222,94.2209 C223.271,94.2609 223.32,94.3229 223.377,94.3539 C223.414,94.2579 223.4,94.1139 223.397,94.0139 C223.393,93.8199 223.36,93.6299 223.318,93.4419 C223.091,92.4319 222.522,91.5609 221.636,90.9659 C221.382,90.7949 221.108,90.6389 220.832,90.5069 C220.488,90.3439 220.124,90.2049 219.759,90.0989 C219.16,89.9259 218.573,89.9479 218.009,89.9769 C217.537,89.9959 217.088,90.0159 216.644,89.9259 C216.606,89.9089 216.586,89.8859 216.575,89.8399 C216.563,89.7929 216.607,89.7359 216.642,89.7009 C216.886,89.4799 217.279,89.4479 217.889,89.6089 C218.39,89.7359 218.929,89.8559 219.528,89.7989 C219.731,89.7779 219.932,89.7359 220.131,89.6789 C220.142,89.6749 220.153,89.6719 220.165,89.6689 C220.184,89.6629 220.203,89.6569 220.222,89.6509 C221.11,89.3839 221.936,88.7819 222.441,87.9999 C222.518,87.8749 222.594,87.7529 222.664,87.6289 C222.894,87.2269 223.165,86.7379 223.615,86.5419 C223.68,86.5149 223.747,86.4929 223.814,86.4749 C223.878,86.4579 223.957,86.4539 224.015,86.4259 C223.957,86.3409 223.83,86.2699 223.745,86.2129" id="Fill-41" fill="#FF0000" mask="url(#mask-4)"></path>
                            <path d="M122.5106,211.3105 C122.1316,211.0605 121.6946,210.9145 121.2516,210.8145 C120.8266,210.7175 120.3956,210.6335 119.9566,210.6585 C119.5336,210.6815 119.1186,210.7885 118.7266,210.9385 C117.8326,211.2835 116.9736,211.8235 116.4226,212.6125 C116.2566,212.8515 116.1146,213.1055 115.9746,213.3595 C115.8336,213.6155 115.6956,213.8615 115.5336,214.0885 C115.4636,214.1745 115.3896,214.2565 115.3106,214.3355 C115.2396,214.4025 115.0946,214.5275 115.0026,214.4965 C114.9406,214.4745 114.9216,214.3795 114.9156,214.3185 C114.9356,213.7795 115.2346,213.3625 115.5376,212.9815 C116.2616,212.0735 116.5406,210.9925 116.2976,210.0155 C116.1496,209.4345 115.7656,208.9685 115.3876,208.5195 C115.1476,208.2355 114.9026,207.9355 114.7306,207.6045 C114.6446,207.4105 114.5836,207.2055 114.5626,206.9975 C114.5546,206.9285 114.5546,206.8595 114.5576,206.7895 C114.5606,206.7255 114.5816,206.6495 114.5716,206.5865 C114.4726,206.6155 114.3646,206.7125 114.2836,206.7755 C114.1306,206.8955 113.9966,207.0365 113.8696,207.1825 C113.0166,208.1715 112.3406,209.5315 112.6766,210.8505 C112.8656,211.5945 113.2256,212.1925 113.6916,212.7995 C113.8516,213.0085 114.0116,213.2175 114.1546,213.4385 C114.2906,213.6495 114.4206,213.8705 114.5026,214.1075 C114.5266,214.1735 114.5446,214.2405 114.5616,214.3085 C114.5706,214.3425 114.5776,214.3765 114.5846,214.4115 C114.5956,214.4575 114.6276,214.5275 114.5886,214.5705 C114.5346,214.6295 114.4086,214.6265 114.3186,214.6115 C114.0376,214.5405 113.7896,214.2895 113.5386,213.8275 C113.3116,213.4045 113.0556,212.9635 112.6266,212.5865 C112.2796,212.2805 111.8546,212.0455 111.4126,211.9025 C110.9606,211.7535 110.4826,211.6745 110.0056,211.7065 C109.3996,211.7485 108.8176,211.9695 108.2046,211.9095 C108.0466,211.8935 107.8906,211.8595 107.7426,211.8005 C107.6776,211.7745 107.6156,211.7415 107.5556,211.7065 C107.4996,211.6725 107.4416,211.6195 107.3806,211.5975 C107.3596,211.6985 107.3956,211.8375 107.4136,211.9375 C107.4896,212.3575 107.6796,212.7785 107.8856,213.1515 C108.0806,213.5035 108.3406,213.8345 108.6516,214.0945 C108.9536,214.3475 109.2976,214.5625 109.6586,214.7255 C109.8676,214.8215 110.0866,214.9015 110.3076,214.9705 C110.7536,215.1095 111.2186,215.2165 111.6876,215.2375 C112.1286,215.2555 112.5626,215.1735 112.9936,215.0915 C113.3896,215.0125 113.9446,214.9235 114.3286,214.9305 C114.3776,214.9305 114.4406,214.9445 114.4416,214.9995 C114.4446,215.1425 114.2506,215.2485 114.1466,215.3175 C114.0796,215.3605 114.0046,215.3905 113.9306,215.4175 C113.7416,215.4875 113.5456,215.5225 113.3446,215.5395 C113.2146,215.5485 113.0826,215.5505 112.9526,215.5455 C112.4346,215.5265 111.8776,215.5225 111.2846,215.7095 C110.1776,216.0645 109.2206,217.0155 108.8476,218.1305 C108.8046,218.2705 108.7616,218.4075 108.7246,218.5445 C108.6026,218.9925 108.4616,219.5325 108.0676,219.8265 C108.0116,219.8685 107.9496,219.9045 107.8876,219.9375 C107.8296,219.9675 107.7516,219.9905 107.7026,220.0305 C107.7816,220.1005 107.9266,220.1425 108.0266,220.1785 C108.2146,220.2475 108.4106,220.2895 108.6096,220.3215 C109.6736,220.4935 110.7226,220.2985 111.6186,219.7065 C111.8756,219.5375 112.1256,219.3435 112.3536,219.1385 C112.6346,218.8835 112.8996,218.5995 113.1346,218.3035 C113.5176,217.8175 113.7046,217.2675 113.8796,216.7375 C114.0386,216.2635 114.2216,215.8315 114.5016,215.4385 C114.5476,215.3885 114.6316,215.3355 114.7166,215.3725 C114.8236,215.4205 114.8546,215.5075 114.8866,215.5605 C115.0306,215.8535 115.1976,216.2875 115.2186,216.3445 C115.5496,217.2205 115.6866,218.1585 115.6456,219.0895 C115.6066,219.9855 115.4986,220.8795 115.2146,221.7355 C115.1326,221.9805 115.0366,222.2215 114.9276,222.4565 C114.7816,222.7665 114.6096,223.0565 114.3646,223.3005 C114.3456,223.3205 114.1146,223.5005 114.1146,223.5035 C114.1146,223.5065 114.1156,223.5085 114.1166,223.5115 C114.3166,223.5575 114.7616,223.6395 115.0306,223.5275 C115.0966,223.4335 115.1296,223.3005 115.1656,223.2005 C115.2336,223.0135 115.2946,222.8255 115.3486,222.6335 C115.4926,222.1245 115.6126,221.6025 115.7156,221.0835 C115.8696,220.3045 115.9516,219.5105 115.9336,218.7165 C115.9276,218.4645 115.9116,218.2115 115.8836,217.9605 C115.8366,217.5395 115.7586,217.1225 115.6466,216.7125 C115.6156,216.6025 115.4066,215.8385 115.2076,215.4425 C115.2046,215.3835 115.2236,215.3825 115.2396,215.3725 C115.2556,215.3645 115.2966,215.3765 115.3316,215.3905 C115.5966,215.5175 115.8126,215.8235 115.9906,216.3165 C116.1626,216.7865 116.3636,217.2845 116.7576,217.7495 C117.4966,218.6165 118.7436,219.1415 119.9326,219.0865 C120.0786,219.0785 120.2246,219.0675 120.3666,219.0535 C120.8346,219.0075 121.3946,218.9455 121.8166,219.1955 C121.8766,219.2315 121.9336,219.2735 121.9876,219.3185 C122.0366,219.3585 122.0856,219.4205 122.1426,219.4515 C122.1796,219.3555 122.1656,219.2115 122.1626,219.1115 C122.1586,218.9175 122.1256,218.7275 122.0836,218.5395 C121.8566,217.5295 121.2876,216.6585 120.4026,216.0635 C120.1476,215.8925 119.8736,215.7365 119.5976,215.6045 C119.2536,215.4415 118.8896,215.3025 118.5246,215.1965 C117.9256,215.0235 117.3386,215.0455 116.7746,215.0745 C116.3026,215.0935 115.8536,215.1135 115.4106,215.0235 C115.3716,215.0065 115.3516,214.9835 115.3406,214.9375 C115.3286,214.8905 115.3726,214.8335 115.4076,214.7985 C115.6516,214.5775 116.0446,214.5455 116.6556,214.7065 C117.1556,214.8335 117.6946,214.9535 118.2936,214.8965 C118.4966,214.8755 118.6976,214.8335 118.8966,214.7765 C118.9076,214.7725 118.9196,214.7695 118.9316,214.7665 C118.9496,214.7605 118.9686,214.7545 118.9886,214.7485 C119.8756,214.4815 120.7016,213.8795 121.2066,213.0975 C121.2836,212.9725 121.3596,212.8505 121.4296,212.7265 C121.6596,212.3245 121.9306,211.8355 122.3806,211.6395 C122.4456,211.6125 122.5126,211.5905 122.5806,211.5725 C122.6436,211.5555 122.7236,211.5515 122.7806,211.5235 C122.7226,211.4385 122.5956,211.3675 122.5106,211.3105" id="Fill-42" fill="#FF0000" mask="url(#mask-4)"></path>
                            <path d="M72.5536,185.7812 C72.4706,185.6712 72.3696,185.5072 72.3026,185.2922 C72.2346,185.0742 72.2156,184.8932 72.2146,184.7702 C72.2136,184.6542 72.2546,184.4552 72.2546,184.4552 C72.2546,184.4552 72.0486,184.4012 71.9346,184.3512 C71.8146,184.3002 71.6536,184.2162 71.4866,184.0852 C71.3436,183.9742 71.2336,183.8342 71.1596,183.7192 C71.0866,183.6102 71.0046,183.4272 71.0046,183.4272 C71.0046,183.4272 70.8056,183.4612 70.6736,183.4682 C70.5376,183.4762 70.3636,183.4752 70.1996,183.4442 C69.8866,183.3862 69.5456,183.1612 69.5446,183.1602 L69.4416,183.0912 C69.4416,183.0912 69.3076,183.2442 69.2116,183.3182 C69.1116,183.3962 68.9616,183.4902 68.7696,183.5532 C68.5656,183.6212 68.3906,183.6312 68.2676,183.6252 C68.1526,183.6192 67.9366,183.5562 67.9366,183.5562 C67.9366,183.5562 67.8826,183.8032 67.8246,183.9412 C67.7656,184.0842 67.6696,184.2622 67.5246,184.4192 C67.3836,184.5682 67.2436,184.6552 67.1416,184.7042 C67.0896,184.7292 67.0476,184.7462 67.0196,184.7542 C66.9956,184.7612 66.7996,184.8032 66.7996,184.8032 C66.7996,184.8032 66.8926,184.9842 66.9016,185.0092 C66.9116,185.0382 66.9266,185.0842 66.9386,185.1442 C66.9606,185.2682 66.9736,185.4562 66.9186,185.7032 C66.8676,185.9342 66.7886,186.0892 66.7276,186.1812 C66.6716,186.2652 66.5016,186.4092 66.5016,186.4092 C66.5016,186.4092 66.6926,186.5852 66.7796,186.6962 C66.8696,186.8122 66.9716,186.9682 67.0286,187.1432 C67.0936,187.3402 67.1006,187.5122 67.0916,187.6362 C67.0836,187.7542 67.0176,187.9682 67.0176,187.9682 C67.0176,187.9682 67.2606,188.0312 67.3996,188.0932 C67.5416,188.1552 67.7216,188.2512 67.8756,188.3862 C68.0186,188.5102 68.1056,188.6472 68.1576,188.7522 C68.1836,188.8042 68.2006,188.8482 68.2096,188.8792 C68.2196,188.9052 68.2556,189.0572 68.2556,189.0572 C68.2556,189.0572 68.4896,189.0072 68.6316,188.9922 C68.7776,188.9772 68.9656,188.9702 69.1456,189.0002 C69.4506,189.0492 69.7456,189.3082 69.7476,189.3102 L69.8466,189.3972 L69.9416,189.3032 C69.9426,189.3032 70.2736,188.9772 70.6276,188.8642 C70.8016,188.8092 70.9676,188.7972 71.0916,188.8002 C71.2096,188.8012 71.4366,188.8442 71.4366,188.8442 C71.4366,188.8442 71.4646,188.6032 71.5066,188.4772 C71.5496,188.3442 71.6246,188.1782 71.7526,188.0312 C71.8676,187.8952 72.0126,187.7982 72.1306,187.7322 C72.2446,187.6702 72.4496,187.5992 72.4496,187.5992 C72.4496,187.5992 72.4026,187.3922 72.3896,187.2652 C72.3766,187.1372 72.3716,186.9682 72.4006,186.8012 C72.4496,186.5102 72.7136,186.1352 72.7166,186.1312 L72.7916,186.0272 C72.7916,186.0272 72.6316,185.8862 72.5536,185.7812" id="Fill-43" fill="#FF0000" mask="url(#mask-4)"></path>
                            <path d="M206.4882,142.3037 C206.4052,142.1937 206.3052,142.0297 206.2372,141.8147 C206.1692,141.5967 206.1512,141.4167 206.1492,141.2927 C206.1482,141.1777 206.1892,140.9777 206.1892,140.9777 C206.1892,140.9777 205.9832,140.9237 205.8692,140.8737 C205.7492,140.8227 205.5882,140.7387 205.4212,140.6077 C205.2782,140.4967 205.1682,140.3577 205.0942,140.2427 C205.0212,140.1327 204.9392,139.9497 204.9392,139.9497 C204.9392,139.9497 204.7412,139.9837 204.6082,139.9907 C204.4722,139.9987 204.2982,139.9977 204.1342,139.9677 C203.8222,139.9087 203.4802,139.6837 203.4792,139.6837 L203.3762,139.6137 C203.3762,139.6137 203.2422,139.7667 203.1462,139.8417 C203.0462,139.9187 202.8962,140.0127 202.7042,140.0757 C202.5002,140.1437 202.3252,140.1537 202.2022,140.1477 C202.0872,140.1427 201.8712,140.0787 201.8712,140.0787 C201.8712,140.0787 201.8172,140.3267 201.7592,140.4637 C201.7002,140.6067 201.6042,140.7857 201.4592,140.9427 C201.3182,141.0907 201.1782,141.1777 201.0762,141.2277 C201.0242,141.2527 200.9822,141.2687 200.9552,141.2777 C200.9302,141.2847 200.7342,141.3267 200.7342,141.3267 C200.7342,141.3267 200.8272,141.5067 200.8362,141.5317 C200.8462,141.5607 200.8612,141.6067 200.8732,141.6677 C200.8962,141.7907 200.9082,141.9797 200.8532,142.2267 C200.8022,142.4577 200.7242,142.6117 200.6622,142.7047 C200.6062,142.7877 200.4362,142.9317 200.4362,142.9317 C200.4362,142.9317 200.6272,143.1077 200.7142,143.2197 C200.8042,143.3347 200.9062,143.4907 200.9642,143.6667 C201.0282,143.8627 201.0352,144.0357 201.0262,144.1587 C201.0182,144.2767 200.9522,144.4907 200.9522,144.4907 C200.9522,144.4907 201.1952,144.5547 201.3342,144.6157 C201.4762,144.6777 201.6562,144.7737 201.8112,144.9087 C201.9532,145.0327 202.0412,145.1697 202.0922,145.2747 C202.1182,145.3267 202.1352,145.3707 202.1452,145.4017 C202.1542,145.4277 202.1902,145.5807 202.1902,145.5807 C202.1902,145.5807 202.4242,145.5297 202.5662,145.5147 C202.7132,145.5007 202.9002,145.4937 203.0802,145.5227 C203.3852,145.5727 203.6812,145.8307 203.6822,145.8327 L203.7812,145.9207 L203.8762,145.8267 C203.8772,145.8257 204.2082,145.4997 204.5622,145.3877 C204.7362,145.3317 204.9022,145.3197 205.0262,145.3227 C205.1442,145.3247 205.3712,145.3677 205.3712,145.3677 C205.3712,145.3677 205.3992,145.1257 205.4412,144.9997 C205.4852,144.8677 205.5602,144.7017 205.6872,144.5537 C205.8032,144.4177 205.9472,144.3207 206.0652,144.2557 C206.1792,144.1927 206.3842,144.1217 206.3842,144.1217 C206.3842,144.1217 206.3372,143.9147 206.3252,143.7887 C206.3122,143.6597 206.3072,143.4907 206.3352,143.3247 C206.3842,143.0327 206.6482,142.6577 206.6512,142.6537 L206.7262,142.5497 C206.7262,142.5497 206.5662,142.4087 206.4882,142.3037" id="Fill-44" fill="#FF0000" mask="url(#mask-4)"></path>
                        </g>
                    </g>
                </g>
            </g>
        </g>
    </g>
</svg>